<svg width="24" height="24" viewBox="0 0 24 24" fill="none" xmlns="http://www.w3.org/2000/svg">
<g clip-path="url(#clip0_2777_386057)">
<rect width="24" height="24" rx="12" fill="#FF4E4E"/>
<path d="M31.1998 0H-7.2002V24H31.1998V0Z" fill="#74ACDF"/>
<path d="M38.3429 6.51196H-14.3428V17.4884H38.3429V6.51196Z" fill="white"/>
<path d="M11.792 12.0863L13.6656 16.1694C13.6656 16.1694 13.6979 16.2478 13.7499 16.226C13.802 16.2043 13.7697 16.1266 13.7697 16.1266L12.2082 11.9117M12.1634 13.5002C12.1404 14.1212 12.5223 14.463 12.4723 15.0149C12.4222 15.5668 12.7245 15.8856 12.7976 16.1029C12.8707 16.3202 12.7212 16.4473 12.7845 16.4783C12.8477 16.5092 12.9866 16.3387 12.9419 16.0318C12.8971 15.7249 12.6639 15.6366 12.7186 14.957C12.7733 14.2773 12.4413 14.1219 12.521 13.5042" fill="#F6B40E"/>
<path d="M12.8006 16.5185C12.7895 16.5184 12.7785 16.5159 12.7684 16.5112C12.713 16.4842 12.7328 16.4249 12.7493 16.3795C12.7849 16.2961 12.7896 16.2026 12.7624 16.1161C12.7369 16.0494 12.7056 15.985 12.6689 15.9238C12.555 15.7176 12.3982 15.4344 12.4358 15.0182C12.4601 14.7482 12.3785 14.5302 12.2929 14.2991C12.2073 14.0679 12.1151 13.8203 12.1263 13.5029H12.1994C12.1882 13.8058 12.2764 14.0422 12.3614 14.2708C12.4503 14.5098 12.5346 14.7357 12.5089 15.0222C12.4733 15.4173 12.6235 15.6873 12.7328 15.8862C12.772 15.9514 12.8053 16.0199 12.8322 16.091C12.8643 16.1926 12.8594 16.3023 12.8184 16.4006C12.8138 16.4144 12.8079 16.4322 12.8052 16.4434C12.814 16.4396 12.8219 16.434 12.8283 16.4269C12.8724 16.3848 12.9376 16.255 12.9053 16.0364C12.8891 15.946 12.8589 15.8587 12.8158 15.7776C12.7354 15.6057 12.6445 15.4107 12.6841 14.9537C12.7045 14.7053 12.6687 14.4554 12.5793 14.2227C12.5097 14.0425 12.4744 13.8508 12.4753 13.6576L11.7607 12.1008L11.8266 12.0705L12.4852 13.5075V13.4989L12.5576 13.5088C12.551 13.5555 12.5477 13.6003 12.5458 13.6405L13.6983 16.151C13.7016 16.1589 13.7213 16.1951 13.7351 16.1892C13.749 16.1832 13.7351 16.1437 13.7351 16.1371L12.173 11.9223L12.2389 11.8966L13.8003 16.1115C13.8068 16.1279 13.8108 16.1452 13.8122 16.1628C13.8155 16.182 13.8122 16.2018 13.8029 16.2189C13.7936 16.236 13.7788 16.2494 13.7608 16.257C13.7022 16.2814 13.6508 16.2346 13.6291 16.1806L12.5517 13.8335C12.5698 13.9579 12.6005 14.0801 12.6432 14.1983C12.7378 14.4417 12.7758 14.7033 12.7545 14.9636C12.719 15.4009 12.8059 15.5866 12.8823 15.7506C12.9282 15.8382 12.9604 15.9324 12.9778 16.0298C13.0127 16.2675 12.9416 16.4401 12.8612 16.4994C12.8435 16.512 12.8223 16.5187 12.8006 16.5185Z" fill="#85340A"/>
<path d="M11.7749 12L11.9435 16.4888C11.9435 16.4888 11.9435 16.5738 12.0001 16.5738C12.0568 16.5738 12.0561 16.4888 12.0561 16.4888L12.2254 12M11.576 13.4489C11.3172 14.0139 11.5391 14.4756 11.281 14.9688C11.0228 15.4621 11.1842 15.8684 11.1671 16.0943C11.1499 16.3202 10.9642 16.3834 11.0116 16.4361C11.059 16.4888 11.2514 16.3848 11.3271 16.0838C11.4028 15.7828 11.2224 15.6103 11.5319 15.0057C11.8414 14.4012 11.5978 14.1285 11.9066 13.5885" fill="#F6B40E"/>
<path d="M12.0001 16.61C11.9342 16.61 11.9072 16.5474 11.9072 16.4888L11.8097 13.9099C11.7789 14.0319 11.7606 14.1568 11.7551 14.2826C11.7482 14.5414 11.6832 14.7953 11.5648 15.0255C11.3672 15.4167 11.3731 15.6182 11.381 15.8019C11.3903 15.9004 11.3841 15.9998 11.3626 16.0963C11.304 16.3294 11.1729 16.4612 11.0754 16.4849C11.0598 16.4906 11.0428 16.4916 11.0265 16.4879C11.0103 16.4841 10.9955 16.4758 10.9839 16.4638C10.9431 16.4177 10.9839 16.3709 11.0175 16.3321C11.0822 16.2688 11.1222 16.1845 11.1301 16.0943C11.1321 16.023 11.1279 15.9516 11.1176 15.881C11.0906 15.6465 11.0517 15.3245 11.2493 14.9543C11.3751 14.7146 11.381 14.4822 11.3922 14.2352C11.4034 13.9882 11.4113 13.7248 11.543 13.4363L11.6089 13.4673C11.4831 13.7419 11.4739 13.9942 11.4647 14.2378C11.4554 14.4934 11.4469 14.7337 11.3132 14.9886C11.1301 15.339 11.165 15.6472 11.19 15.8724C11.2013 15.9476 11.2057 16.0236 11.2032 16.0996C11.1941 16.206 11.1474 16.3057 11.0715 16.3808C11.0614 16.3916 11.0519 16.4031 11.0432 16.4151C11.0528 16.4156 11.0623 16.4136 11.0708 16.4091C11.1275 16.3867 11.2374 16.2912 11.2908 16.0798C11.3106 15.9902 11.3162 15.8979 11.3073 15.8065C11.2994 15.6169 11.2901 15.4015 11.4989 14.9939C11.6127 14.772 11.675 14.5273 11.6813 14.278C11.6858 14.0835 11.7269 13.8915 11.8025 13.7123L11.7366 12H11.8097L11.8697 13.5806L11.8736 13.5733L11.9395 13.6102C11.9158 13.651 11.8954 13.6912 11.8776 13.7294L11.9816 16.4895C11.9816 16.498 11.9856 16.5389 12.0014 16.5389C12.0172 16.5389 12.0211 16.4987 12.0211 16.4908L12.1884 12H12.2615L12.0929 16.4888C12.0928 16.5238 12.0807 16.5578 12.0587 16.585C12.0511 16.5929 12.042 16.5992 12.0319 16.6035C12.0219 16.6078 12.011 16.61 12.0001 16.61Z" fill="#85340A"/>
<path d="M11.7914 11.9137L10.2293 16.1286C10.2293 16.1286 10.197 16.2063 10.2491 16.228C10.3011 16.2497 10.3334 16.1714 10.3334 16.1714L12.2076 12.0882M11.0525 13.1795C10.5974 13.6023 10.6258 14.114 10.1964 14.4709C9.76698 14.8279 9.76303 15.2645 9.66029 15.4673C9.55755 15.6702 9.36262 15.657 9.38567 15.7235C9.40872 15.79 9.62736 15.7677 9.81242 15.5187C9.99748 15.2698 9.89672 15.0412 10.4144 14.6007C10.932 14.1601 10.8095 13.8143 11.3028 13.435" fill="#F6B40E"/>
<path d="M10.2677 16.2656C10.2566 16.2657 10.2456 16.2635 10.2355 16.259C10.223 16.2521 10.212 16.2428 10.2033 16.2316C10.1945 16.2203 10.188 16.2074 10.1844 16.1937C10.1807 16.1799 10.1798 16.1655 10.1818 16.1514C10.1838 16.1373 10.1886 16.1237 10.196 16.1115L11.0942 13.6899C11.019 13.7909 10.9541 13.8993 10.9006 14.0133C10.795 14.2499 10.6374 14.4597 10.4396 14.6271C10.1051 14.9116 10.0353 15.1039 9.97336 15.2738C9.94331 15.3679 9.89888 15.4568 9.84164 15.5372C9.69807 15.7302 9.52619 15.8007 9.4274 15.7868C9.41075 15.7861 9.39467 15.7805 9.38111 15.7708C9.36755 15.7611 9.3571 15.7477 9.35101 15.7322C9.33059 15.6736 9.38657 15.6459 9.43201 15.6242C9.51654 15.5903 9.58648 15.5279 9.62958 15.4477C9.65825 15.3821 9.68138 15.3143 9.69873 15.2448C9.76459 15.0183 9.85416 14.7074 10.1749 14.4394C10.3823 14.2662 10.4798 14.0541 10.5819 13.8302C10.684 13.6063 10.7946 13.3653 11.0271 13.1499L11.0771 13.2033C10.8552 13.4094 10.7478 13.6386 10.649 13.8618C10.5424 14.0936 10.4423 14.313 10.2216 14.4974C9.91804 14.7502 9.83176 15.0486 9.7692 15.2666C9.7506 15.3403 9.7257 15.4124 9.69478 15.4819C9.64552 15.5762 9.56461 15.6501 9.46626 15.6907C9.45264 15.6971 9.43944 15.7043 9.42674 15.7124C9.43555 15.7158 9.44497 15.7174 9.4544 15.717C9.51302 15.717 9.65197 15.6722 9.78369 15.4951C9.83626 15.4198 9.87671 15.3366 9.90355 15.2488C9.96941 15.0703 10.0425 14.8681 10.3915 14.5711C10.5817 14.4093 10.733 14.2067 10.8341 13.9784C10.9131 13.8012 11.0248 13.6406 11.1634 13.5049L11.7561 11.8993L11.822 11.925L11.2754 13.4094L11.2819 13.4041L11.3267 13.4621C11.2894 13.4911 11.2552 13.52 11.224 13.549L10.2638 16.1385C10.2638 16.1464 10.248 16.1853 10.2638 16.1919C10.2796 16.1984 10.2967 16.1616 10.3 16.155L12.1743 12.0718L12.2402 12.1021L10.3665 16.1853C10.3537 16.2172 10.3305 16.2439 10.3007 16.261C10.2901 16.2647 10.2789 16.2662 10.2677 16.2656Z" fill="#85340A"/>
<path d="M11.8406 11.8406L8.78615 15.1334C8.78615 15.1334 8.72622 15.1934 8.76573 15.2329C8.80525 15.2724 8.86518 15.2131 8.86518 15.2131L12.158 12.1587M10.6743 12.7244C10.0921 12.941 9.92284 13.4244 9.39138 13.5904C8.85991 13.7564 8.6867 14.1581 8.51482 14.3056C8.34293 14.4531 8.16709 14.3669 8.16314 14.4373C8.15919 14.5078 8.36927 14.569 8.63534 14.4116C8.9014 14.2542 8.89877 14.0027 9.54285 13.7939C10.1869 13.5851 10.208 13.2183 10.8099 13.057" fill="#F6B40E"/>
<path d="M8.79738 15.2843C8.78659 15.2843 8.7759 15.2821 8.76595 15.2779C8.75599 15.2737 8.74698 15.2676 8.73943 15.2599C8.73061 15.2487 8.72411 15.2359 8.72033 15.2222C8.71654 15.2085 8.71554 15.1941 8.71738 15.18C8.71922 15.1659 8.72387 15.1523 8.73105 15.14C8.73823 15.1277 8.74779 15.117 8.75918 15.1084L10.5156 13.2144C10.4074 13.2787 10.3062 13.354 10.2133 13.4389C10.0261 13.6173 9.80094 13.751 9.55474 13.8301C9.13655 13.9619 8.99825 14.116 8.87641 14.2497C8.81297 14.3253 8.73835 14.3908 8.65513 14.4439C8.44834 14.5677 8.25999 14.5677 8.17701 14.5164C8.1619 14.5093 8.14914 14.498 8.14027 14.4839C8.13139 14.4698 8.12677 14.4534 8.12696 14.4367C8.13091 14.3748 8.19281 14.3708 8.24352 14.3675C8.33415 14.3686 8.42219 14.3373 8.49181 14.2793C8.5434 14.23 8.59077 14.1765 8.6334 14.1193C8.78026 13.9342 8.98244 13.6813 9.38088 13.5568C9.63969 13.4758 9.81027 13.3178 9.99071 13.1498C10.1712 12.9819 10.3648 12.8021 10.6625 12.6888L10.6881 12.7547C10.4043 12.8601 10.2192 13.032 10.0408 13.1979C9.86229 13.3639 9.67723 13.5358 9.40327 13.6214C9.02525 13.7393 8.83163 13.9823 8.6907 14.1594C8.64503 14.2202 8.59436 14.277 8.53922 14.3293C8.45781 14.398 8.35466 14.4356 8.24814 14.4354C8.23311 14.4357 8.21813 14.4373 8.20335 14.44C8.21021 14.4463 8.21827 14.4513 8.22706 14.4545C8.28304 14.4788 8.42793 14.4894 8.61694 14.3761C8.69434 14.3267 8.76365 14.2656 8.82241 14.195C8.95017 14.0547 9.09572 13.896 9.53235 13.7551C9.7696 13.6788 9.9866 13.5501 10.1672 13.3784C10.3071 13.2449 10.4709 13.139 10.6499 13.0662L11.8143 11.8103L11.8683 11.8604L10.7929 13.0194H10.8008L10.8199 13.0899C10.7738 13.1024 10.7316 13.1163 10.6914 13.1307L8.81187 15.1611C8.80594 15.1677 8.78026 15.1987 8.79146 15.2098C8.80265 15.221 8.8336 15.1954 8.83887 15.1901L12.1311 12.1317L12.1805 12.185L8.88761 15.2401C8.86346 15.2647 8.83162 15.2803 8.79738 15.2843Z" fill="#85340A"/>
<path d="M12.2834 13.6076C12.313 14.2003 12.6515 14.4677 12.585 15.011C12.7306 14.5816 12.3796 14.2484 12.3993 13.6135M11.8955 12.0494L13.1791 14.8529L12.1036 11.9631" fill="#85340A"/>
<path d="M11.6465 13.5937C11.4457 14.1561 11.6571 14.5296 11.3877 15.0064C11.6873 14.6646 11.4898 14.2227 11.7512 13.6438M11.8829 12.0059L11.9995 15.0874L12.1121 12.0052" fill="#85340A"/>
<path d="M11.0645 13.3376C10.6641 13.7782 10.7162 14.2062 10.2881 14.5434C10.6951 14.3426 10.6832 13.8585 11.1442 13.4239M11.8943 11.9612L10.8149 14.8516L12.0978 12.0475" fill="#85340A"/>
<path d="M10.6229 12.8772C10.0835 13.1334 9.96892 13.5464 9.44141 13.6932C9.89384 13.6636 10.067 13.2111 10.6611 12.9866M11.9124 11.923L9.81284 14.1812L12.0711 12.0817" fill="#85340A"/>
<path d="M11.9142 11.7917L7.83102 13.6654C7.83102 13.6654 7.75265 13.6977 7.77438 13.7497C7.79612 13.8017 7.87383 13.7694 7.87383 13.7694L12.0887 12.208M10.5002 12.1632C9.87918 12.1401 9.53738 12.5221 8.9855 12.4721C8.43361 12.422 8.11487 12.7243 7.89754 12.7974C7.68021 12.8705 7.5531 12.721 7.52215 12.7842C7.4912 12.8474 7.66177 12.9864 7.96866 12.9416C8.27556 12.8968 8.3638 12.6637 9.04345 12.7184C9.7231 12.773 9.87852 12.4411 10.4963 12.5208" fill="#F6B40E"/>
<path d="M7.82518 13.8162C7.80745 13.8174 7.78979 13.8131 7.77467 13.8038C7.75955 13.7944 7.74773 13.7806 7.74088 13.7642C7.71652 13.7049 7.76328 13.6542 7.81728 13.6325L10.1644 12.5551C10.0398 12.5732 9.91736 12.6038 9.79892 12.6466C9.5572 12.7394 9.29765 12.7766 9.03959 12.7553C8.6023 12.7204 8.41658 12.8066 8.2526 12.883C8.16494 12.9289 8.07077 12.9611 7.97336 12.9785C7.73496 13.0134 7.56307 12.9423 7.5038 12.8619C7.49263 12.8496 7.48527 12.8342 7.48258 12.8177C7.47989 12.8013 7.482 12.7844 7.48865 12.7691C7.51565 12.7138 7.57493 12.7335 7.62037 12.75C7.7038 12.7856 7.79722 12.7903 7.8838 12.7632C7.95051 12.7377 8.01485 12.7064 8.0761 12.6696C8.28223 12.5551 8.56542 12.399 8.98163 12.4365C9.25099 12.4609 9.46963 12.3792 9.70079 12.2936C9.93195 12.208 10.1796 12.1158 10.497 12.127V12.2001C10.1947 12.1889 9.95764 12.2771 9.72911 12.3621C9.49005 12.451 9.26416 12.5353 8.97834 12.5096C8.5832 12.474 8.31252 12.6242 8.11364 12.7335C8.04854 12.7729 7.97998 12.8061 7.90882 12.833C7.80726 12.8651 7.69759 12.8602 7.59929 12.8191C7.58546 12.8145 7.56768 12.8086 7.55649 12.806C7.56024 12.8148 7.56586 12.8226 7.57295 12.829C7.6151 12.8731 7.74484 12.9377 7.96348 12.9061C8.05387 12.8898 8.14119 12.8596 8.2223 12.8165C8.39419 12.7362 8.58912 12.6453 9.04617 12.6848C9.29461 12.7049 9.54438 12.6691 9.77719 12.5801C9.95746 12.5107 10.1491 12.4754 10.3422 12.476L11.8991 11.7615L11.9294 11.8273L10.4924 12.4859H10.501L10.4911 12.5583C10.4443 12.5518 10.3995 12.5485 10.3594 12.5465L7.84889 13.699C7.84099 13.7023 7.80477 13.7214 7.8107 13.7359C7.81662 13.7504 7.85614 13.7359 7.86272 13.7359L12.0776 12.1737L12.1033 12.2396L7.88841 13.8011C7.87196 13.8075 7.85465 13.8115 7.83704 13.8129L7.82518 13.8162Z" fill="#85340A"/>
<path d="M11.9996 11.7747L7.51074 11.9433C7.51074 11.9433 7.42578 11.9433 7.42578 11.9999C7.42578 12.0565 7.51074 12.0559 7.51074 12.0559L11.9996 12.2251M10.5507 11.5758C9.98565 11.317 9.52399 11.5389 9.03072 11.2807C8.53745 11.0226 8.13111 11.1839 7.90522 11.1668C7.67933 11.1497 7.61611 10.964 7.56342 11.0114C7.51074 11.0588 7.61479 11.2511 7.91576 11.3268C8.21673 11.4026 8.38927 11.2221 8.99384 11.5317C9.59841 11.8412 9.87106 11.5975 10.4111 11.9064" fill="#F6B40E"/>
<path d="M11.9997 12.2634L7.51085 12.0948C7.47596 12.094 7.44225 12.082 7.4147 12.0605C7.40654 12.0527 7.40009 12.0433 7.39578 12.0329C7.39147 12.0225 7.38939 12.0112 7.38967 11.9999C7.38967 11.9341 7.45224 11.9071 7.51085 11.9071L10.0898 11.8096C9.96775 11.7787 9.84285 11.7604 9.71706 11.755C9.45829 11.7481 9.20438 11.6831 8.97419 11.5646C8.583 11.3671 8.38148 11.373 8.19774 11.3809C8.09925 11.3902 7.99992 11.384 7.90336 11.3625C7.67022 11.3038 7.53851 11.1728 7.51414 11.0753C7.50868 11.0596 7.50782 11.0426 7.51167 11.0264C7.51552 11.0102 7.52392 10.9954 7.53588 10.9838C7.58198 10.9429 7.62873 10.9838 7.66759 11.0174C7.73083 11.0821 7.81517 11.1221 7.90533 11.13C7.97669 11.132 8.04808 11.1278 8.11871 11.1175C8.35316 11.0905 8.67455 11.0516 9.04532 11.2492C9.28504 11.375 9.51752 11.3809 9.76448 11.3921C10.0114 11.4033 10.2749 11.4112 10.5633 11.5429L10.5324 11.6088C10.2577 11.483 10.0055 11.4738 9.76185 11.4645C9.50632 11.4553 9.26594 11.4468 9.01107 11.3131C8.66072 11.13 8.3525 11.1649 8.12727 11.1899C8.0521 11.2012 7.97604 11.2056 7.90007 11.2031C7.79367 11.1939 7.69399 11.1473 7.61886 11.0714C7.60802 11.0612 7.59659 11.0518 7.58461 11.043C7.58442 11.0526 7.58645 11.0621 7.59054 11.0707C7.61293 11.1273 7.70842 11.2373 7.91982 11.2907C8.00949 11.3105 8.10173 11.3161 8.19313 11.3071C8.38346 11.2992 8.59815 11.29 9.00646 11.4988C9.22811 11.6126 9.47258 11.675 9.72167 11.6812C9.91618 11.6857 10.1081 11.7268 10.2874 11.8024L11.9997 11.7365V11.8096L10.4191 11.8682L10.4263 11.8722L10.3895 11.938C10.3486 11.9143 10.3085 11.8939 10.2703 11.8761L7.51019 11.9802C7.50163 11.9802 7.4608 11.9841 7.4608 11.9999C7.46032 12.001 7.46008 12.0021 7.46008 12.0032C7.46008 12.0044 7.46032 12.0055 7.4608 12.0065C7.47426 12.0154 7.49011 12.02 7.50624 12.0197L11.9997 12.1883V12.2634Z" fill="#85340A"/>
<path d="M12.0867 11.7918L7.87181 10.2297C7.87181 10.2297 7.7941 10.1974 7.77236 10.2494C7.75063 10.3014 7.829 10.3337 7.829 10.3337L11.9121 12.208M10.8209 11.0529C10.3981 10.5978 9.88638 10.6261 9.52943 10.1967C9.17249 9.76734 8.73585 9.76339 8.53301 9.66066C8.33017 9.55792 8.34334 9.36298 8.27683 9.38603C8.21031 9.40908 8.23271 9.62773 8.48165 9.81279C8.73059 9.99784 8.95911 9.89708 9.39969 10.4147C9.84028 10.9324 10.186 10.8099 10.5654 11.3031" fill="#F6B40E"/>
<path d="M11.8983 12.2409L7.81515 10.3673C7.78324 10.3545 7.75657 10.3313 7.73942 10.3014C7.7348 10.2911 7.73242 10.2799 7.73242 10.2685C7.73242 10.2572 7.7348 10.246 7.73942 10.2356C7.74631 10.2231 7.75566 10.2122 7.76689 10.2034C7.77812 10.1946 7.791 10.1882 7.80477 10.1845C7.81855 10.1808 7.83292 10.1799 7.84704 10.1819C7.86116 10.1839 7.87472 10.1887 7.88694 10.1961L10.3085 11.0944C10.2075 11.0191 10.0992 10.9542 9.98514 10.9007C9.74854 10.7951 9.53876 10.6375 9.37135 10.4397C9.08685 10.1052 8.89455 10.0354 8.72464 9.97348C8.63056 9.94343 8.5417 9.899 8.46121 9.84176C8.26825 9.6982 8.19778 9.52631 8.21161 9.42752C8.21237 9.41087 8.21793 9.39479 8.22763 9.38123C8.23733 9.36768 8.25075 9.35722 8.26627 9.35113C8.32489 9.33071 8.35255 9.38669 8.37428 9.43213C8.4081 9.51666 8.47058 9.5866 8.55078 9.6297C8.61645 9.65725 8.68429 9.67927 8.75361 9.69556C8.98016 9.76142 9.29101 9.85098 9.55905 10.1717C9.73225 10.3792 9.94431 10.4766 10.1682 10.5787C10.3921 10.6808 10.6332 10.7914 10.8485 11.0239L10.7952 11.074C10.5891 10.852 10.3599 10.7447 10.1366 10.6459C9.9048 10.5392 9.68549 10.4391 9.50109 10.2185C9.2482 9.91487 8.94987 9.82859 8.73188 9.76603C8.6581 9.74743 8.58605 9.72253 8.51653 9.69161C8.42224 9.64235 8.34832 9.56144 8.30776 9.46309C8.30118 9.44991 8.29262 9.43279 8.28669 9.42357C8.28263 9.4322 8.28082 9.44172 8.28142 9.45123C8.28142 9.51182 8.3262 9.6488 8.50336 9.78052C8.57869 9.83309 8.6618 9.87354 8.74966 9.90038C8.92814 9.96623 9.13032 10.0393 9.42733 10.3884C9.58914 10.5786 9.79173 10.7298 10.02 10.8309C10.1972 10.9099 10.3579 11.0216 10.4936 11.1602L12.0992 11.7529L12.0735 11.8188L10.5904 11.2755L10.5956 11.2821L10.5377 11.3268C10.5087 11.2895 10.4797 11.2553 10.4508 11.2241L7.86125 10.2639C7.85335 10.2606 7.81449 10.2488 7.80791 10.2639C7.80132 10.2791 7.8382 10.2975 7.84479 10.3001L11.9279 12.1744L11.8983 12.2409Z" fill="#85340A"/>
<path d="M12.1598 11.8405L8.86693 8.78603C8.86693 8.78603 8.807 8.7261 8.76749 8.76561C8.72798 8.80512 8.78725 8.86505 8.78725 8.86505L11.8417 12.1579M11.276 10.6741C11.0593 10.092 10.5759 9.92272 10.41 9.39125C10.244 8.85979 9.84228 8.68658 9.69476 8.5147C9.54724 8.34281 9.63351 8.16697 9.56304 8.16302C9.49258 8.15907 9.43133 8.36915 9.58873 8.63521C9.74613 8.90128 9.9977 8.89864 10.2065 9.54272C10.4152 10.1868 10.7821 10.2079 10.9434 10.8098" fill="#F6B40E"/>
<path d="M11.8144 12.1837L8.75929 8.89081C8.73454 8.86605 8.71917 8.83346 8.71582 8.79861C8.71581 8.78781 8.71797 8.77712 8.72215 8.76717C8.72634 8.75722 8.73247 8.7482 8.74019 8.74066C8.75424 8.72707 8.77241 8.71854 8.79183 8.71639C8.81126 8.71424 8.83086 8.71861 8.84753 8.7288C8.86363 8.73726 8.87847 8.7479 8.89166 8.76041L10.785 10.5168C10.7209 10.4087 10.6459 10.3074 10.5611 10.2145C10.3828 10.0273 10.249 9.80217 10.1699 9.55597C10.0382 9.13777 9.88412 8.99947 9.75043 8.87764C9.67479 8.8142 9.60927 8.73958 9.55616 8.65636C9.43235 8.44957 9.43169 8.26122 9.48371 8.17824C9.49073 8.16307 9.50199 8.15027 9.51613 8.14139C9.53028 8.1325 9.5467 8.12792 9.5634 8.12818C9.62531 8.13214 9.62926 8.19404 9.63255 8.24475C9.63181 8.33532 9.66307 8.42325 9.7208 8.49303C9.77008 8.54463 9.82362 8.59199 9.88083 8.63463C10.0659 8.78149 10.3188 8.98367 10.4433 9.3821C10.5243 9.64092 10.6823 9.81149 10.8502 9.99194C11.0182 10.1724 11.198 10.366 11.3112 10.6637L11.2454 10.6894C11.14 10.4055 10.9681 10.2205 10.8022 10.042C10.6362 9.86352 10.4643 9.67846 10.3787 9.40384C10.2608 9.02648 10.0178 8.83286 9.84066 8.69192C9.7799 8.64626 9.72306 8.59559 9.67075 8.54045C9.60205 8.45904 9.56448 8.35589 9.56472 8.24936C9.56437 8.23434 9.56283 8.21936 9.56011 8.20458C9.55375 8.21144 9.54883 8.2195 9.54562 8.22829C9.52125 8.28427 9.51072 8.42915 9.62399 8.61816C9.67345 8.69574 9.73479 8.76508 9.80575 8.82364C9.94537 8.9514 10.1041 9.09694 10.245 9.53358C10.3213 9.77082 10.45 9.98782 10.6217 10.1684C10.7551 10.3083 10.861 10.4721 10.9339 10.6512L12.1898 11.8155L12.1318 11.8682L10.9727 10.7928V10.8007L10.9023 10.8198C10.8898 10.7737 10.8759 10.7315 10.8614 10.6913L8.83897 8.81244C8.83239 8.80651 8.80143 8.78083 8.79024 8.79202C8.77904 8.80322 8.80473 8.83417 8.81 8.83944L11.8684 12.1316L11.8144 12.1837Z" fill="#85340A"/>
<path d="M10.3917 12.2838C9.79898 12.3134 9.5316 12.6519 8.98828 12.5854C9.41767 12.7309 9.75091 12.3799 10.3858 12.3997M11.9499 11.8959L9.14634 13.1794L12.0361 12.104" fill="#85340A"/>
<path d="M10.4057 11.647C9.84333 11.4494 9.46992 11.6575 8.99311 11.3882C9.33491 11.6878 9.77681 11.4903 10.3557 11.7517M11.9936 11.8834L8.91211 12L11.9942 12.1126" fill="#85340A"/>
<path d="M10.6625 11.0641C10.2219 10.6636 9.79384 10.7157 9.45665 10.2876C9.65751 10.6946 10.1416 10.6827 10.5762 11.1437M12.0389 11.8939L9.14844 10.8145L11.9526 12.0974" fill="#85340A"/>
<path d="M11.1223 10.6235C10.8661 10.0841 10.4532 9.96953 10.3064 9.44202C10.336 9.89445 10.7884 10.0677 11.013 10.6617M12.0766 11.913L9.81836 9.81345L11.9179 12.0717" fill="#85340A"/>
<path d="M12.2073 11.9138L10.3337 7.83065C10.3337 7.83065 10.3014 7.75228 10.2494 7.77402C10.1973 7.79575 10.2296 7.87346 10.2296 7.87346L11.7911 12.0883M11.8359 10.4998C11.8589 9.87881 11.477 9.53701 11.527 8.98513C11.5771 8.43325 11.2748 8.1145 11.2017 7.89717C11.1286 7.67984 11.2781 7.55274 11.2148 7.52178C11.1516 7.49083 11.0127 7.6614 11.0574 7.9683C11.1022 8.27519 11.3354 8.36344 11.2807 9.04308C11.226 9.72273 11.558 9.87815 11.4783 10.4959" fill="#F6B40E"/>
<path d="M11.7572 12.0988L10.1957 7.88399C10.1893 7.86754 10.1853 7.85023 10.1839 7.83262C10.1806 7.81343 10.1838 7.79367 10.1932 7.77658C10.2025 7.75948 10.2173 7.74604 10.2353 7.73844C10.2945 7.71407 10.3452 7.76083 10.367 7.81484L11.4444 10.162C11.4262 10.0374 11.3955 9.91494 11.3528 9.79648C11.2599 9.55477 11.2228 9.29521 11.2442 9.03714C11.2797 8.59985 11.1928 8.41414 11.1164 8.24686C11.0705 8.1592 11.0383 8.06503 11.0209 7.96762C10.986 7.72988 11.0572 7.55733 11.1375 7.49806C11.1499 7.48689 11.1652 7.47953 11.1817 7.47684C11.1982 7.47416 11.2151 7.47626 11.2304 7.48292C11.2857 7.50992 11.2659 7.56919 11.2495 7.61463C11.2138 7.69806 11.2091 7.79149 11.2363 7.87806C11.2618 7.94477 11.2931 8.00912 11.3298 8.07036C11.4437 8.27715 11.6005 8.55968 11.5629 8.9759C11.5386 9.24591 11.6202 9.4639 11.7058 9.69506C11.7915 9.92621 11.8837 10.1738 11.8725 10.4913H11.7994C11.8106 10.1883 11.7223 9.9519 11.6374 9.72337C11.5484 9.48431 11.4641 9.25842 11.4898 8.9726C11.5254 8.57746 11.3752 8.30679 11.2659 8.1079C11.2267 8.04274 11.1934 7.97419 11.1665 7.90308C11.1343 7.80152 11.1392 7.69185 11.1803 7.59356C11.1849 7.57973 11.1908 7.56195 11.1935 7.55075C11.1847 7.5545 11.1768 7.56012 11.1704 7.56721C11.1263 7.60936 11.0611 7.7391 11.0934 7.95775C11.1096 8.04814 11.1399 8.13545 11.1829 8.21656C11.2633 8.38845 11.3542 8.58339 11.3147 9.04044C11.2943 9.28888 11.33 9.53872 11.4194 9.77145C11.4891 9.95164 11.5244 10.1433 11.5234 10.3365L12.238 11.8934L12.1721 11.9237L11.5135 10.4867V10.4952L11.4411 10.4853C11.4477 10.4386 11.451 10.3938 11.453 10.3536L10.3005 7.84316C10.2972 7.83525 10.2781 7.79903 10.2636 7.80496C10.2491 7.81088 10.2636 7.84974 10.2636 7.85698L11.8257 12.0718L11.7572 12.0988Z" fill="#85340A"/>
<path d="M12.2249 11.9999L12.0563 7.5111C12.0563 7.5111 12.0563 7.42615 11.9996 7.42615C11.943 7.42615 11.9437 7.5111 11.9437 7.5111L11.7744 11.9999M12.4238 10.5511C12.6826 9.98601 12.4606 9.52435 12.7188 9.03108C12.977 8.53781 12.8156 8.13148 12.8327 7.90559C12.8499 7.6797 13.0356 7.61647 12.9882 7.56379C12.9407 7.5111 12.7484 7.61516 12.6727 7.91612C12.597 8.21709 12.7774 8.38964 12.4679 8.9942C12.1584 9.59877 12.402 9.87142 12.0932 10.4114" fill="#F6B40E"/>
<path d="M12.1888 11.9999L12.1315 10.4194L12.1275 10.4266L12.0617 10.3897C12.0854 10.3489 12.1058 10.3087 12.1236 10.2705L12.0195 7.51046C12.0195 7.5019 12.0156 7.46107 11.9998 7.46107C11.984 7.46107 11.98 7.5019 11.98 7.50915L11.8114 11.9999H11.7363L11.9049 7.51112C11.9055 7.49322 11.9086 7.47549 11.9141 7.45844C11.9188 7.43974 11.9296 7.42313 11.9447 7.41121C11.9598 7.39929 11.9785 7.39273 11.9978 7.39258C12.0171 7.39281 12.0358 7.39938 12.051 7.41128C12.0663 7.42318 12.0772 7.43974 12.0821 7.45844C12.0876 7.47592 12.0904 7.49412 12.0906 7.51244L12.1901 10.0901C12.221 9.96802 12.2393 9.84312 12.2447 9.71733C12.2516 9.45856 12.3166 9.20465 12.4351 8.97447C12.6326 8.58327 12.6267 8.37846 12.6188 8.19801C12.6095 8.09952 12.6157 8.00019 12.6373 7.90363C12.6959 7.6705 12.8269 7.53878 12.9244 7.51441C12.9401 7.50903 12.9571 7.50822 12.9733 7.51206C12.9895 7.51591 13.0043 7.52426 13.0159 7.53615C13.0568 7.58225 13.0159 7.62901 12.9823 7.66786C12.9176 7.7311 12.8776 7.81545 12.8697 7.90561C12.8677 7.97696 12.8719 8.04835 12.8822 8.11898C12.9092 8.35409 12.9481 8.67547 12.7505 9.04559C12.6247 9.28531 12.6188 9.51779 12.6076 9.76475C12.5964 10.0117 12.5885 10.2751 12.4568 10.5636L12.3909 10.5326C12.5167 10.258 12.526 10.0058 12.5345 9.76212C12.5444 9.50659 12.553 9.26621 12.6866 9.01135C12.8697 8.66099 12.8348 8.35277 12.8098 8.12754C12.7985 8.05237 12.7941 7.97632 12.7966 7.90034C12.8058 7.79394 12.8524 7.69426 12.9283 7.61913C12.9385 7.60829 12.9479 7.59686 12.9567 7.58488C12.9471 7.5847 12.9376 7.58672 12.929 7.59081C12.8724 7.6132 12.7624 7.70869 12.709 7.92009C12.6892 8.00976 12.6836 8.102 12.6926 8.1934C12.7005 8.38307 12.7104 8.59842 12.5009 9.00674C12.3871 9.22838 12.3247 9.47285 12.3185 9.72194C12.314 9.91645 12.2729 10.1084 12.1973 10.2877L12.2632 11.9999H12.1888Z" fill="#85340A"/>
<path d="M12.2082 12.0863L13.7703 7.87144C13.7703 7.87144 13.8026 7.79373 13.7506 7.772C13.6986 7.75026 13.6663 7.82863 13.6663 7.82863L11.792 11.9118M12.9471 10.8205C13.4022 10.3977 13.3739 9.88601 13.8033 9.52906C14.2327 9.17212 14.2366 8.73878 14.3393 8.53265C14.4421 8.32651 14.637 8.34298 14.614 8.27646C14.5909 8.20995 14.3723 8.23234 14.1872 8.48128C14.0022 8.73022 14.1029 8.95874 13.5853 9.39933C13.0676 9.83991 13.1901 10.1857 12.6969 10.565" fill="#F6B40E"/>
<path d="M12.2425 12.0988L12.1766 12.0731L12.7246 10.5907L12.718 10.5959L12.6732 10.538C12.7105 10.509 12.7448 10.48 12.7759 10.451L13.7361 7.86154C13.7361 7.85364 13.7513 7.81479 13.7361 7.8082C13.721 7.80162 13.7025 7.8385 13.6999 7.84508L11.8256 11.9282L11.7598 11.8979L13.6334 7.81479C13.6462 7.78287 13.6694 7.7562 13.6993 7.73905C13.7096 7.73444 13.7208 7.73206 13.7322 7.73206C13.7435 7.73206 13.7547 7.73444 13.7651 7.73905C13.7776 7.74595 13.7885 7.75529 13.7973 7.76652C13.8061 7.77775 13.8125 7.79064 13.8162 7.80441C13.8199 7.81818 13.8208 7.83256 13.8188 7.84667C13.8168 7.86079 13.812 7.87436 13.8046 7.88657L12.9063 10.3081C12.9816 10.2072 13.0465 10.0988 13.1 9.98478C13.2056 9.74817 13.3632 9.53839 13.561 9.37099C13.8955 9.08649 13.9653 8.89418 14.0272 8.72427C14.0573 8.63019 14.1017 8.54133 14.1589 8.46084C14.3025 8.26788 14.4744 8.19742 14.5732 8.21125C14.5898 8.212 14.6059 8.21757 14.6195 8.22727C14.633 8.23697 14.6435 8.25039 14.6496 8.26591C14.67 8.32452 14.614 8.35218 14.5686 8.37391C14.484 8.40774 14.4141 8.47021 14.371 8.55041C14.3424 8.61579 14.3193 8.68341 14.3018 8.75259C14.236 8.9798 14.1464 9.29064 13.8257 9.55868C13.6183 9.73189 13.5208 9.94395 13.4187 10.1679C13.3166 10.3918 13.206 10.6328 12.9735 10.8482L12.9235 10.7948C13.1454 10.5887 13.2527 10.3595 13.3515 10.1362C13.4503 9.91299 13.5583 9.68513 13.7789 9.50073C14.0825 9.24784 14.1688 8.94884 14.2314 8.73152C14.2499 8.6577 14.2748 8.58565 14.3058 8.51616C14.3551 8.42187 14.436 8.34795 14.5343 8.3074C14.5475 8.30081 14.5646 8.29225 14.5738 8.28632C14.5652 8.28227 14.5557 8.28045 14.5462 8.28105C14.4843 8.28105 14.3486 8.32781 14.2169 8.50299C14.1643 8.57833 14.1239 8.66144 14.097 8.7493C14.0312 8.92777 13.9581 9.12995 13.609 9.42697C13.4188 9.58877 13.2676 9.79137 13.1665 10.0197C13.0875 10.1968 12.9758 10.3575 12.8372 10.4932L12.2425 12.0988Z" fill="#85340A"/>
<path d="M12.1592 12.1594L15.2137 8.86657C15.2137 8.86657 15.2736 8.80664 15.2341 8.76712C15.1946 8.72761 15.1347 8.78688 15.1347 8.78688L11.8418 11.8413M13.3269 11.275C13.9091 11.0583 14.0783 10.5749 14.6098 10.4089C15.1412 10.243 15.3144 9.84125 15.4863 9.69373C15.6582 9.54621 15.8341 9.63248 15.838 9.56202C15.842 9.49155 15.6319 9.4303 15.3658 9.5877C15.0997 9.7451 15.1024 9.99667 14.4583 10.2054C13.8142 10.4142 13.7931 10.781 13.1912 10.9424" fill="#F6B40E"/>
<path d="M12.1858 12.1844L12.1312 12.1317L13.2066 10.9727H13.1987L13.1796 10.9022C13.2257 10.8897 13.2679 10.8759 13.308 10.8614L15.1869 8.83889C15.1929 8.83231 15.2186 8.80135 15.2074 8.79016C15.1962 8.77896 15.2014 8.78357 15.185 8.79016C15.1758 8.79481 15.1674 8.8008 15.1599 8.80794L11.8678 11.8683L11.8184 11.815L15.1112 8.75986C15.1241 8.74748 15.1388 8.73705 15.1547 8.72891C15.1713 8.71863 15.1908 8.71426 15.2102 8.71653C15.2296 8.71879 15.2476 8.72755 15.2613 8.74138C15.2751 8.75521 15.2838 8.77329 15.2859 8.79267C15.2881 8.81206 15.2836 8.8316 15.2732 8.84811C15.2648 8.8642 15.2541 8.87905 15.2416 8.89224L13.4852 10.7856C13.5933 10.7215 13.6946 10.6465 13.7875 10.5617C13.9747 10.3833 14.1999 10.2496 14.4461 10.1705C14.8642 10.0355 15.0026 9.8847 15.1244 9.75101C15.1878 9.67419 15.2627 9.60755 15.3463 9.55344C15.5525 9.42963 15.7382 9.42897 15.8238 9.481C15.8389 9.48808 15.8517 9.49935 15.8605 9.51348C15.8694 9.52761 15.874 9.544 15.8738 9.56069C15.8699 9.62259 15.808 9.62654 15.7573 9.62984C15.6667 9.6291 15.5788 9.66035 15.509 9.71809C15.4574 9.76737 15.41 9.8209 15.3674 9.87812C15.2205 10.0632 15.0184 10.3161 14.6199 10.4405C14.3611 10.5215 14.1905 10.6796 14.0101 10.8475C13.8296 11.0155 13.636 11.1953 13.3383 11.3085L13.3133 11.2427C13.5965 11.1373 13.7816 10.9654 13.96 10.7995C14.1385 10.6335 14.3236 10.4616 14.5975 10.376C14.9755 10.2581 15.1692 10.0151 15.3101 9.83794C15.3558 9.77718 15.4064 9.72035 15.4616 9.66803C15.543 9.59934 15.6461 9.56176 15.7527 9.562C15.7677 9.56165 15.7827 9.56011 15.7974 9.55739C15.7906 9.55104 15.7825 9.54611 15.7737 9.54291C15.7178 9.51854 15.5729 9.508 15.3839 9.62128C15.3063 9.67074 15.2369 9.73207 15.1784 9.80304C15.0506 9.94266 14.9051 10.1014 14.4684 10.2423C14.2312 10.3186 14.0142 10.4473 13.8336 10.619C13.6937 10.7524 13.5299 10.8583 13.3509 10.9312L12.1858 12.1844Z" fill="#85340A"/>
<path d="M11.716 10.3924C11.6863 9.79642 11.3478 9.53233 11.4143 8.98901C11.2688 9.4184 11.6198 9.75164 11.6001 10.3865M12.1039 11.9506L10.8203 9.14707L11.8958 12.0369" fill="#85340A"/>
<path d="M12.3523 10.4062C12.5532 9.84382 12.3418 9.47041 12.6111 8.9936C12.3115 9.3354 12.5091 9.7773 12.2476 10.3562M12.1159 11.9941L11.9993 8.9126L11.8867 11.9947" fill="#85340A"/>
<path d="M12.9356 10.6624C13.3361 10.2198 13.284 9.79372 13.7154 9.45653C13.3084 9.65739 13.3202 10.1414 12.8592 10.5761M12.1091 12.0388L13.1852 9.14832L11.9023 11.9525" fill="#85340A"/>
<path d="M13.3759 11.1227C13.9153 10.8665 14.0299 10.4536 14.5574 10.3067C14.105 10.3364 13.9318 10.7888 13.3377 11.0134M12.0865 12.077L14.186 9.81873L11.9277 11.9182" fill="#85340A"/>
<path d="M12.0866 12.2082L16.1698 10.3345C16.1698 10.3345 16.2481 10.3023 16.2264 10.2502C16.2047 10.1982 16.127 10.2305 16.127 10.2305L11.9121 11.7919M13.5006 11.8367C14.1216 11.8598 14.4634 11.4778 15.0153 11.5279C15.5672 11.5779 15.8859 11.2756 16.1033 11.2025C16.3206 11.1294 16.4477 11.2789 16.4786 11.2157C16.5096 11.1525 16.339 11.0135 16.0321 11.0583C15.7252 11.1031 15.637 11.3362 14.9573 11.2816C14.2777 11.2269 14.1223 11.5588 13.5045 11.4791" fill="#F6B40E"/>
<path d="M12.1016 12.2417L12.0713 12.1758L13.5083 11.5173H13.4998L13.5096 11.4448C13.5564 11.4514 13.6012 11.4547 13.6414 11.4567L16.1518 10.3042C16.1597 10.3042 16.196 10.2818 16.19 10.2673C16.1841 10.2528 16.1446 10.2673 16.138 10.2673L11.9231 11.8294L11.8975 11.7636L16.1123 10.2021C16.1288 10.1956 16.1461 10.1916 16.1637 10.1902C16.1829 10.1869 16.2026 10.1902 16.2197 10.1995C16.2368 10.2088 16.2503 10.2237 16.2579 10.2416C16.2822 10.3009 16.2355 10.3516 16.1815 10.3733L13.8343 11.4507C13.9587 11.4326 14.081 11.402 14.1992 11.3592C14.4421 11.2639 14.7036 11.2249 14.9638 11.2453C15.4011 11.2808 15.5868 11.1939 15.7508 11.1175C15.8384 11.0716 15.9326 11.0394 16.03 11.022C16.2684 10.9871 16.4403 11.0582 16.4996 11.1386C16.5106 11.151 16.5179 11.1664 16.5205 11.1828C16.5232 11.1992 16.5212 11.2161 16.5147 11.2314C16.4877 11.2868 16.4284 11.267 16.383 11.2505C16.2995 11.2152 16.2062 11.2106 16.1196 11.2374C16.0528 11.2629 15.9885 11.2941 15.9273 11.3309C15.7205 11.4448 15.4373 11.6015 15.0217 11.564C14.7517 11.5396 14.5337 11.6213 14.3026 11.7069C14.0714 11.7925 13.8238 11.8847 13.5063 11.8735V11.8004C13.808 11.811 14.0457 11.7234 14.2742 11.6384C14.5133 11.5495 14.7392 11.4652 15.0257 11.4909C15.4208 11.5265 15.6908 11.3763 15.8897 11.267C15.9549 11.2278 16.0234 11.1945 16.0945 11.1676C16.1961 11.1354 16.3058 11.1403 16.4041 11.1814C16.4179 11.186 16.4357 11.1919 16.4469 11.1946C16.4431 11.1858 16.4375 11.1779 16.4304 11.1715C16.3883 11.128 16.2585 11.0628 16.0399 11.0944C15.9495 11.1107 15.8622 11.1409 15.7811 11.184C15.6092 11.2644 15.4136 11.3552 14.9572 11.3157C14.7087 11.2953 14.4589 11.3311 14.2262 11.4204C14.0461 11.4904 13.8543 11.5257 13.6611 11.5245L12.1016 12.2417Z" fill="#85340A"/>
<path d="M12.001 12.2252L16.4898 12.0566C16.4898 12.0566 16.5748 12.0566 16.5748 12C16.5748 11.9434 16.4898 11.944 16.4898 11.944L12.001 11.7748M13.4498 12.4241C14.0149 12.6829 14.4765 12.461 14.9698 12.7192C15.4631 12.9773 15.8694 12.816 16.0953 12.8331C16.3212 12.8502 16.3844 13.0359 16.4371 12.9885C16.4898 12.9411 16.3857 12.7488 16.0848 12.6731C15.7838 12.5973 15.6113 12.7778 15.0067 12.4683C14.4021 12.1587 14.1295 12.4024 13.5894 12.0935" fill="#F6B40E"/>
<path d="M16.4213 13.0333C16.3866 13.0268 16.3551 13.009 16.3317 12.9826C16.2684 12.9178 16.1842 12.8777 16.094 12.8693C16.0226 12.8678 15.9512 12.8724 15.8806 12.8831C15.6455 12.9088 15.3241 12.945 14.954 12.7514C14.7143 12.6256 14.4818 12.6197 14.2349 12.6085C13.9879 12.5973 13.7245 12.5894 13.436 12.4577L13.467 12.3918C13.7416 12.5176 13.9938 12.5268 14.2375 12.5354C14.493 12.5453 14.7334 12.5538 14.9883 12.6875C15.3386 12.8706 15.6468 12.8357 15.8721 12.8107C15.9472 12.7994 16.0233 12.795 16.0993 12.7975C16.2057 12.8066 16.3053 12.8533 16.3805 12.9292C16.3913 12.9393 16.4027 12.9488 16.4147 12.9575C16.4149 12.948 16.4129 12.9385 16.4088 12.9299C16.3864 12.8732 16.2916 12.7633 16.0795 12.7099C15.9898 12.6901 15.8976 12.6845 15.8062 12.6935C15.6165 12.7014 15.4012 12.7112 14.9935 12.5018C14.7716 12.388 14.5269 12.3257 14.2777 12.3194C14.0835 12.3146 13.8921 12.2733 13.7133 12.1975L12.001 12.2634V12.1903L13.5815 12.1304L13.5743 12.1264L13.6112 12.0606C13.652 12.0843 13.6922 12.1047 13.7304 12.1225L16.4905 12.0184C16.499 12.0184 16.5398 12.0145 16.5398 11.9987C16.5403 11.9976 16.5406 11.9965 16.5406 11.9954C16.5406 11.9942 16.5403 11.9931 16.5398 11.9921C16.5264 11.9832 16.5105 11.9786 16.4944 11.9789L12.001 11.8116V11.7385L16.4898 11.9071C16.5249 11.9074 16.5588 11.9197 16.5859 11.942C16.5937 11.9495 16.5998 11.9586 16.6038 11.9685C16.6079 11.9785 16.6099 11.9892 16.6097 12C16.6094 12.0193 16.6029 12.038 16.591 12.0532C16.5791 12.0685 16.5625 12.0794 16.5438 12.0843C16.5263 12.0898 16.5081 12.0927 16.4898 12.0928L13.9108 12.1903C14.0329 12.2212 14.1578 12.2395 14.2836 12.245C14.5424 12.2518 14.7963 12.3169 15.0265 12.4353C15.4176 12.6329 15.6192 12.6269 15.8029 12.619C15.9014 12.6097 16.0007 12.616 16.0973 12.6375C16.3304 12.6961 16.4621 12.8271 16.4858 12.9246C16.4915 12.9403 16.4925 12.9572 16.4887 12.9735C16.485 12.9897 16.4767 13.0045 16.4648 13.0162C16.459 13.0218 16.4522 13.0262 16.4448 13.0291C16.4373 13.0321 16.4293 13.0335 16.4213 13.0333Z" fill="#85340A"/>
<path d="M11.9141 12.2078L16.1289 13.77C16.1289 13.77 16.2066 13.8022 16.2284 13.7502C16.2501 13.6982 16.1717 13.6659 16.1717 13.6659L12.0886 11.7916M13.1798 12.9468C13.6026 13.4018 14.1143 13.3735 14.4713 13.8029C14.8282 14.2323 15.2649 14.2362 15.4677 14.339C15.6706 14.4417 15.6574 14.6367 15.7239 14.6136C15.7904 14.5906 15.768 14.3719 15.5191 14.1868C15.2701 14.0018 15.0416 14.1026 14.601 13.5849C14.1604 13.0673 13.8147 13.1898 13.4354 12.6965" fill="#F6B40E"/>
<path d="M15.7096 14.6508C15.6668 14.6508 15.6437 14.604 15.6253 14.5652C15.5914 14.4806 15.529 14.4107 15.4488 14.3676C15.3832 14.3389 15.3154 14.3158 15.2459 14.2984C15.0194 14.2326 14.7085 14.143 14.4405 13.8223C14.2673 13.6148 14.0552 13.5174 13.8313 13.4153C13.6074 13.3132 13.3664 13.2026 13.151 12.9701L13.2044 12.92C13.4105 13.142 13.6397 13.2493 13.8629 13.3481C14.0948 13.4548 14.3141 13.5549 14.4985 13.7755C14.7513 14.0791 15.0497 14.1654 15.2677 14.228C15.3415 14.2465 15.4135 14.2714 15.483 14.3024C15.5773 14.3516 15.6512 14.4326 15.6918 14.5309C15.6982 14.5445 15.7054 14.5577 15.7135 14.5704C15.7169 14.5616 15.7185 14.5522 15.7181 14.5428C15.7181 14.4822 15.6733 14.3452 15.4962 14.2135C15.4209 14.1609 15.3377 14.1205 15.2499 14.0936C15.0714 14.0278 14.8692 13.9547 14.5722 13.6056C14.4104 13.4154 14.2078 13.2642 13.9795 13.1631C13.8023 13.0841 13.6417 12.9724 13.506 12.8338L11.9004 12.2411L11.9261 12.1752L13.4092 12.7244L13.4039 12.7179L13.4619 12.6731C13.4908 12.7104 13.5198 12.7446 13.5488 12.7758L16.1383 13.736C16.1462 13.74 16.1857 13.7518 16.1916 13.736C16.1976 13.7202 16.1613 13.7024 16.1548 13.6998L12.0716 11.8255L12.1019 11.7596L16.1851 13.6333C16.217 13.6461 16.2436 13.6693 16.2608 13.6991C16.2654 13.7095 16.2678 13.7207 16.2678 13.7321C16.2678 13.7434 16.2654 13.7546 16.2608 13.765C16.2539 13.7775 16.2445 13.7884 16.2333 13.7972C16.2221 13.806 16.2092 13.8124 16.1954 13.8161C16.1817 13.8198 16.1673 13.8207 16.1532 13.8187C16.1391 13.8167 16.1255 13.8119 16.1133 13.8045L13.6917 12.9062C13.7927 12.9815 13.901 13.0464 14.0151 13.0998C14.2517 13.2055 14.4615 13.363 14.6289 13.5608C14.9134 13.8954 15.1057 13.9652 15.2756 14.0271C15.3696 14.0572 15.4585 14.1016 15.539 14.1588C15.732 14.3024 15.8024 14.4743 15.7886 14.5731C15.7878 14.5897 15.7823 14.6058 15.7726 14.6193C15.7629 14.6329 15.7495 14.6434 15.7339 14.6495C15.726 14.6514 15.7177 14.6519 15.7096 14.6508Z" fill="#85340A"/>
<path d="M11.8408 12.1595L15.1337 15.2139C15.1337 15.2139 15.1936 15.2739 15.2331 15.2343C15.2726 15.1948 15.2134 15.1349 15.2134 15.1349L12.1589 11.842M12.7253 13.3271C12.942 13.9093 13.4253 14.0785 13.5913 14.61C13.7573 15.1415 14.159 15.3147 14.3065 15.4866C14.454 15.6585 14.3678 15.8343 14.4382 15.8382C14.5087 15.8422 14.5699 15.6321 14.4125 15.3661C14.2551 15.1 14.0036 15.1026 13.7948 14.4585C13.586 13.8145 13.2192 13.7934 13.0579 13.1915" fill="#F6B40E"/>
<path d="M14.4405 15.8738H14.4365C14.3746 15.8698 14.3707 15.8079 14.3674 15.7572C14.3685 15.6666 14.3372 15.5786 14.2791 15.5089C14.2299 15.4573 14.1763 15.41 14.1191 15.3674C13.9341 15.2205 13.6812 15.0183 13.5567 14.6199C13.4757 14.3611 13.3176 14.1905 13.1497 14.01C12.9818 13.8296 12.802 13.636 12.6887 13.3383L12.7546 13.3133C12.8599 13.5965 13.0318 13.7815 13.1978 13.96C13.3637 14.1385 13.5356 14.3235 13.6212 14.5975C13.7391 14.9755 13.9821 15.1691 14.1593 15.3107C14.2202 15.356 14.277 15.4064 14.3292 15.4615C14.3979 15.5429 14.4355 15.6461 14.4352 15.7526C14.4356 15.7676 14.4371 15.7826 14.4398 15.7974C14.4462 15.7905 14.4511 15.7825 14.4543 15.7737C14.4787 15.7177 14.4892 15.5728 14.376 15.3838C14.3265 15.3064 14.2654 15.2371 14.1948 15.1783C14.0546 15.0506 13.8959 14.905 13.7549 14.4684C13.6787 14.2312 13.5499 14.0142 13.3782 13.8335C13.2448 13.6936 13.1389 13.5299 13.0661 13.3508L11.8154 12.1865L11.8681 12.1318L13.0272 13.2072V13.1993L13.0977 13.1802C13.1102 13.2263 13.124 13.2685 13.1385 13.3087L15.161 15.1876C15.1676 15.1935 15.1985 15.2192 15.2097 15.208C15.2209 15.1968 15.1952 15.1658 15.1899 15.1606L12.1315 11.8684L12.1849 11.819L15.24 15.1118C15.2647 15.1366 15.2801 15.1692 15.2835 15.204C15.2835 15.2148 15.2813 15.2255 15.2771 15.2355C15.2729 15.2454 15.2668 15.2544 15.2591 15.262C15.245 15.2756 15.2269 15.2841 15.2074 15.2862C15.188 15.2884 15.1684 15.284 15.1517 15.2738C15.1357 15.2654 15.1208 15.2547 15.1076 15.2422L13.2142 13.4858C13.2784 13.5941 13.3536 13.6954 13.4388 13.7881C13.6167 13.9756 13.7502 14.2006 13.8293 14.4467C13.9611 14.8649 14.1152 15.0032 14.2488 15.125C14.3245 15.1887 14.39 15.2635 14.4431 15.3469C14.5669 15.5531 14.5676 15.7388 14.5156 15.8244C14.5086 15.8386 14.498 15.8507 14.4848 15.8594C14.4716 15.8681 14.4563 15.873 14.4405 15.8738Z" fill="#85340A"/>
<path d="M13.6083 11.7162C14.201 11.6866 14.4684 11.3481 15.0117 11.4146C14.5823 11.269 14.2491 11.6201 13.6142 11.6003M12.0501 12.1041L14.8537 10.8206L11.9639 11.896" fill="#85340A"/>
<path d="M13.5934 12.3531C14.1558 12.5539 14.5292 12.3425 15.006 12.6119C14.6642 12.3122 14.2223 12.5098 13.6434 12.2483M12.0055 12.1166L15.087 12.0001L12.0049 11.8875" fill="#85340A"/>
<path d="M13.3383 12.9359C13.7809 13.3363 14.207 13.2843 14.5442 13.7156C14.3433 13.3086 13.8593 13.3205 13.4246 12.8595M11.9619 12.1094L14.8524 13.1855L12.0482 11.9026" fill="#85340A"/>
<path d="M12.8781 13.3764C13.1343 13.9158 13.5472 14.0304 13.6941 14.5579C13.6644 14.1055 13.212 13.9323 12.9874 13.3382M11.9238 12.0869L14.1821 14.1865L12.0825 11.9282" fill="#85340A"/>
<path d="M12.0004 13.8294C13.0108 13.8294 13.8299 13.0103 13.8299 11.9999C13.8299 10.9895 13.0108 10.1704 12.0004 10.1704C10.99 10.1704 10.1709 10.9895 10.1709 11.9999C10.1709 13.0103 10.99 13.8294 12.0004 13.8294Z" fill="#F6B40E"/>
<path d="M12 13.8788C11.6284 13.8788 11.2651 13.7686 10.9561 13.5621C10.6472 13.3557 10.4063 13.0622 10.2641 12.7189C10.1219 12.3756 10.0847 11.9978 10.1572 11.6333C10.2297 11.2688 10.4086 10.9341 10.6714 10.6713C10.9342 10.4085 11.269 10.2296 11.6334 10.1571C11.9979 10.0846 12.3757 10.1218 12.719 10.264C13.0623 10.4062 13.3558 10.647 13.5622 10.956C13.7687 11.265 13.8789 11.6283 13.8789 11.9999C13.8784 12.498 13.6803 12.9756 13.328 13.3279C12.9758 13.6801 12.4982 13.8783 12 13.8788ZM12 10.2217C11.6483 10.2217 11.3045 10.326 11.0121 10.5214C10.7197 10.7168 10.4918 10.9945 10.3572 11.3194C10.2226 11.6443 10.1874 12.0018 10.256 12.3468C10.3246 12.6917 10.494 13.0085 10.7427 13.2572C10.9913 13.5059 11.3082 13.6752 11.6531 13.7439C11.998 13.8125 12.3556 13.7772 12.6805 13.6427C13.0054 13.5081 13.2831 13.2802 13.4785 12.9878C13.6739 12.6953 13.7781 12.3516 13.7781 11.9999C13.7769 11.5287 13.5892 11.0771 13.256 10.7439C12.9228 10.4107 12.4712 10.223 12 10.2217Z" fill="#85340A"/>
<path d="M12.6234 11.6088C12.561 11.607 12.4992 11.6214 12.4441 11.6506C12.3889 11.6798 12.3422 11.7228 12.3086 11.7754C12.4495 11.9019 12.7604 11.9157 12.9711 11.7609C12.9264 11.7134 12.8725 11.6755 12.8128 11.6493C12.753 11.6232 12.6886 11.6094 12.6234 11.6088ZM12.6234 11.6378C12.7452 11.6378 12.8585 11.6911 12.8743 11.7464C12.8093 11.8146 12.7208 11.8555 12.6268 11.8608C12.5328 11.8662 12.4402 11.8357 12.3679 11.7754C12.3951 11.7325 12.4329 11.6973 12.4777 11.6732C12.5224 11.6491 12.5726 11.6369 12.6234 11.6378Z" fill="#843511"/>
<path d="M12.6473 11.5217C12.4642 11.5217 12.4221 11.5639 12.3378 11.6343C12.2964 11.6677 12.2483 11.6918 12.1968 11.7048C12.183 11.7186 12.1968 11.7608 12.2251 11.747C12.2858 11.7166 12.3424 11.6787 12.3937 11.6343C12.466 11.579 12.5568 11.5537 12.6473 11.5639C12.9008 11.5639 13.0424 11.7753 13.0694 11.7614C13.0964 11.7476 12.9285 11.5224 12.6473 11.5224V11.5217Z" fill="#85340A"/>
<path d="M13.1541 11.6048C12.8307 11.3236 12.4224 11.2814 12.1972 11.4922C12.1441 11.5611 12.1082 11.6417 12.0924 11.7273C12.0641 11.8873 12.1142 12.0605 12.2393 12.2383C12.2183 12.2418 12.1988 12.2514 12.1833 12.266C12.0744 12.071 12.0341 11.8452 12.0687 11.6246C12.0783 11.5697 12.093 11.5159 12.1129 11.4639C12.4224 11.211 12.8445 11.1827 13.1541 11.6048Z" fill="#85340A"/>
<path d="M12.6186 11.8728C12.6885 11.8728 12.7451 11.8162 12.7451 11.7463C12.7451 11.6765 12.6885 11.6199 12.6186 11.6199C12.5488 11.6199 12.4922 11.6765 12.4922 11.7463C12.4922 11.8162 12.5488 11.8728 12.6186 11.8728Z" fill="#85340A"/>
<path d="M12.9876 11.8313C12.7485 12.0144 12.5088 11.9999 12.3685 11.9156C12.2282 11.8313 12.2276 11.803 12.2559 11.803C12.2842 11.803 12.3119 11.8313 12.4245 11.8873C12.5371 11.9433 12.7057 11.9439 12.9876 11.8313Z" fill="#85340A"/>
<path d="M11.7199 12.2528C11.6908 12.2585 11.6646 12.2742 11.6458 12.2972C11.6271 12.3201 11.6169 12.3489 11.6172 12.3786C11.6173 12.3952 11.6206 12.4116 11.6271 12.4268C11.6335 12.4421 11.6429 12.456 11.6547 12.4676C11.6665 12.4792 11.6805 12.4884 11.6959 12.4946C11.7113 12.5008 11.7277 12.5039 11.7443 12.5037C11.7646 12.5039 11.7846 12.4992 11.8026 12.4899C11.8206 12.4806 11.8361 12.467 11.8477 12.4504C11.8929 12.4795 11.9461 12.4937 11.9998 12.4912C12.0053 12.4915 12.0108 12.4915 12.0163 12.4912C12.07 12.4934 12.1231 12.4792 12.1684 12.4504C12.1799 12.467 12.1953 12.4805 12.2132 12.4898C12.2311 12.4991 12.251 12.5039 12.2712 12.5037C12.303 12.5045 12.334 12.4932 12.3579 12.472C12.3817 12.4509 12.3968 12.4216 12.3999 12.3899C12.4031 12.3581 12.3942 12.3264 12.3749 12.301C12.3557 12.2756 12.3276 12.2584 12.2962 12.2528C12.3107 12.258 12.3235 12.2669 12.3333 12.2788C12.3431 12.2907 12.3495 12.305 12.3518 12.3202C12.3541 12.3354 12.3522 12.351 12.3463 12.3652C12.3404 12.3795 12.3308 12.3918 12.3185 12.401C12.3061 12.4102 12.2915 12.4159 12.2762 12.4174C12.2609 12.4189 12.2454 12.4163 12.2315 12.4097C12.2176 12.4031 12.2057 12.3929 12.1972 12.3801C12.1886 12.3674 12.1837 12.3525 12.1829 12.3371C12.1678 12.3708 12.1432 12.3994 12.1122 12.4195C12.0812 12.4396 12.045 12.4503 12.0081 12.4503C11.9711 12.4503 11.9349 12.4396 11.9039 12.4195C11.8729 12.3994 11.8483 12.3708 11.8332 12.3371C11.832 12.3587 11.8227 12.3791 11.807 12.394C11.7913 12.4089 11.7705 12.4173 11.7489 12.4175C11.729 12.4173 11.7098 12.4102 11.6946 12.3974C11.6794 12.3846 11.6692 12.3668 11.6657 12.3472C11.6623 12.3276 11.6658 12.3074 11.6757 12.2902C11.6856 12.2729 11.7013 12.2597 11.7199 12.2528Z" fill="#85340A"/>
<path d="M11.8575 12.6274C11.7166 12.6274 11.66 12.7552 11.5342 12.8395C11.6114 12.7966 11.6864 12.7498 11.7588 12.6992C11.8575 12.6432 11.9412 12.7117 11.9972 12.7117C12.0531 12.7117 12.1374 12.6459 12.2356 12.6992C12.3086 12.7499 12.3842 12.7967 12.4621 12.8395C12.3357 12.7552 12.2777 12.6274 12.1368 12.6274C12.0878 12.6325 12.0403 12.6473 11.9972 12.6709C11.954 12.6473 11.9065 12.6325 11.8575 12.6274Z" fill="#85340A"/>
<path d="M11.8096 12.7942C11.7299 12.7997 11.6512 12.815 11.5752 12.8396C11.8281 12.783 11.8841 12.868 11.9967 12.868C12.1093 12.868 12.1653 12.783 12.4188 12.8396C12.1376 12.7553 12.0816 12.8107 11.9967 12.8107C11.9347 12.8014 11.8723 12.7959 11.8096 12.7942Z" fill="#85340A"/>
<path d="M11.5885 12.8377H11.5352C11.8309 12.866 11.6886 13.0353 11.9962 13.0353C12.3057 13.0353 12.1654 12.866 12.4611 12.8377C12.1516 12.8094 12.2497 12.9925 11.9962 12.9925C11.7584 12.9925 11.8315 12.8324 11.5865 12.8357L11.5885 12.8377Z" fill="#85340A"/>
<path d="M12.2538 13.2947C12.2556 13.2603 12.2503 13.226 12.2384 13.1937C12.2265 13.1615 12.2081 13.132 12.1844 13.1071C12.1607 13.0822 12.1322 13.0623 12.1006 13.0488C12.069 13.0352 12.035 13.0282 12.0006 13.0282C11.9662 13.0282 11.9322 13.0352 11.9006 13.0488C11.869 13.0623 11.8405 13.0822 11.8168 13.1071C11.7931 13.132 11.7748 13.1615 11.7628 13.1937C11.7509 13.226 11.7456 13.2603 11.7474 13.2947C11.7632 13.2397 11.7964 13.1913 11.8421 13.1569C11.8878 13.1225 11.9434 13.1039 12.0006 13.1039C12.0578 13.1039 12.1135 13.1225 12.1592 13.1569C12.2048 13.1913 12.2381 13.2397 12.2538 13.2947Z" fill="#85340A"/>
<path d="M10.8623 11.6048C11.1857 11.3236 11.594 11.2814 11.8192 11.4922C11.8723 11.5611 11.9082 11.6417 11.9239 11.7273C11.9522 11.8873 11.9022 12.0605 11.7771 12.2383C11.7981 12.2418 11.8176 12.2514 11.833 12.266C11.9419 12.071 11.9823 11.8452 11.9476 11.6246C11.9381 11.5697 11.9233 11.5159 11.9035 11.4639C11.594 11.211 11.1718 11.1827 10.8623 11.6048Z" fill="#85340A"/>
<path d="M11.3693 11.5217C11.5524 11.5217 11.5945 11.5639 11.6788 11.6343C11.7202 11.6677 11.7683 11.6918 11.8198 11.7048C11.8336 11.7186 11.8198 11.7608 11.7915 11.747C11.7308 11.7166 11.6742 11.6787 11.6229 11.6343C11.5506 11.579 11.4598 11.5537 11.3693 11.5639C11.1158 11.5639 10.9742 11.7753 10.9472 11.7614C10.9202 11.7476 11.0881 11.5224 11.3693 11.5224V11.5217Z" fill="#85340A"/>
<path d="M11.3607 11.6088C11.2983 11.607 11.2365 11.6214 11.1814 11.6506C11.1262 11.6798 11.0795 11.7228 11.0459 11.7754C11.1862 11.9019 11.497 11.9157 11.7084 11.7609C11.6637 11.7134 11.6098 11.6755 11.5501 11.6493C11.4903 11.6232 11.4259 11.6094 11.3607 11.6088ZM11.3607 11.6378C11.4819 11.6378 11.5958 11.6911 11.6116 11.7464C11.5466 11.8146 11.4581 11.8555 11.3641 11.8608C11.2701 11.8662 11.1775 11.8357 11.1052 11.7754C11.1324 11.7325 11.1702 11.6973 11.215 11.6732C11.2597 11.6491 11.3099 11.6369 11.3607 11.6378Z" fill="#843511"/>
<path d="M11.3764 11.8728C11.4463 11.8728 11.5029 11.8162 11.5029 11.7463C11.5029 11.6765 11.4463 11.6199 11.3764 11.6199C11.3066 11.6199 11.25 11.6765 11.25 11.7463C11.25 11.8162 11.3066 11.8728 11.3764 11.8728Z" fill="#85340A"/>
<path d="M11.0312 11.8313C11.2703 12.0144 11.51 11.9999 11.6503 11.9156C11.7906 11.8313 11.7912 11.803 11.7629 11.803C11.7346 11.803 11.7069 11.8313 11.5943 11.8873C11.4817 11.9433 11.3131 11.9439 11.0312 11.8313Z" fill="#85340A"/>
</g>
<defs>
<clipPath id="clip0_2777_386057">
<rect width="24" height="24" rx="12" fill="white"/>
</clipPath>
</defs>
</svg>
