<svg width="320" height="400" viewBox="0 0 320 400" fill="none" xmlns="http://www.w3.org/2000/svg">
<g clip-path="url(#clip0_2754_159987)">
<path d="M243.637 216.451H208.344L295.761 86.4679H260.467L318.683 0H266.559L208.344 86.4679H243.637L156.157 216.451H191.513L104.034 346.434H139.39L103.28 400H155.467L191.513 346.434H156.157L243.637 216.451Z" fill="black"/>
<path d="M192.238 216.451H156.945L244.362 86.4679H209.069L267.284 0H215.16L156.945 86.4679H192.238L104.759 216.451H140.115L52.635 346.434H87.9911L51.8813 400H104.068L140.115 346.434H104.759L192.238 216.451Z" fill="#71B0E5"/>
<path d="M140.357 216.451H105.064L192.481 86.4679H157.187L215.403 0H163.279L105.064 86.4679H140.357L52.8773 216.451H88.2334L0.753612 346.434H36.1098L0 400H52.1865L88.2334 346.434H52.8773L140.357 216.451Z" fill="white"/>
</g>
<defs>
<clipPath id="clip0_2754_159987">
<rect width="320" height="400" fill="white"/>
</clipPath>
</defs>
</svg>
