<svg width="24" height="24" viewBox="0 0 24 24" fill="none" xmlns="http://www.w3.org/2000/svg">
<g clip-path="url(#clip0_2777_386061)">
<path d="M24 0H0V24H24V0Z" fill="#009B3A"/>
<path d="M0 12L12 20L24 12L12 4L0 12Z" fill="#FEDF00"/>
<path d="M12 17C14.7614 17 17 14.7614 17 12C17 9.23858 14.7614 7 12 7C9.23858 7 7 9.23858 7 12C7 14.7614 9.23858 17 12 17Z" fill="#002776"/>
<mask id="mask0_2777_386061" style="mask-type:luminance" maskUnits="userSpaceOnUse" x="7" y="6" width="11" height="12">
<path d="M12.1427 17.0001C14.9041 17.0001 17.1428 14.7614 17.1428 12C17.1428 9.2385 14.9041 6.99988 12.1427 6.99988C9.3812 6.99988 7.14258 9.2385 7.14258 12C7.14258 14.7614 9.3812 17.0001 12.1427 17.0001Z" fill="white"/>
</mask>
<g mask="url(#mask0_2777_386061)">
<path d="M-2.85742 22.0001C-2.85742 18.7796 -1.57806 15.691 0.699205 13.4137C2.97648 11.1364 6.06512 9.85706 9.28566 9.85706C12.5062 9.85706 15.5948 11.1364 17.8721 13.4137C20.1494 15.691 21.4287 18.7796 21.4287 22.0001H20.7144C20.7144 18.969 19.5103 16.0621 17.367 13.9188C15.2237 11.7755 12.3168 10.5714 9.28566 10.5714C6.25456 10.5714 3.3476 11.7755 1.20429 13.9188C-0.939023 16.0621 -2.14312 18.969 -2.14312 22.0001H-2.85742Z" fill="white"/>
</g>
<path fill-rule="evenodd" clip-rule="evenodd" d="M7.87815 10.5385C7.93456 10.5315 7.9856 10.5 8.02005 10.4508C8.05449 10.4016 8.06952 10.3387 8.06182 10.276C8.05413 10.2133 8.02434 10.156 7.97901 10.1166C7.93368 10.0771 7.87652 10.0589 7.82011 10.0658C7.7637 10.0727 7.71266 10.1043 7.67822 10.1535C7.64377 10.2027 7.62874 10.2656 7.63644 10.3282C7.64413 10.3909 7.67392 10.4483 7.71925 10.4877C7.76458 10.5271 7.82174 10.5454 7.87815 10.5385M7.86737 10.4507C7.9005 10.4466 7.93035 10.4271 7.95036 10.3963C7.97036 10.3656 7.97888 10.3262 7.97405 10.2868C7.96921 10.2474 7.95141 10.2112 7.92456 10.1862C7.89772 10.1613 7.86402 10.1495 7.83089 10.1536C7.79776 10.1576 7.76791 10.1772 7.74791 10.2079C7.7279 10.2387 7.71938 10.2781 7.72422 10.3175C7.72905 10.3569 7.74685 10.393 7.7737 10.418C7.80055 10.443 7.83424 10.4547 7.86737 10.4507" fill="#009B3A"/>
<path fill-rule="evenodd" clip-rule="evenodd" d="M8.2562 10.4955L8.34637 10.4869L8.33754 10.3148L8.53175 10.2964C8.57222 10.2925 8.61025 10.2735 8.63746 10.2435C8.66468 10.2134 8.67885 10.1749 8.67687 10.1362C8.67489 10.0976 8.65691 10.0621 8.62689 10.0375C8.59688 10.0129 8.55728 10.0012 8.5168 10.005L8.23936 10.0313L8.2562 10.4955ZM8.33312 10.2287L8.5204 10.211C8.53695 10.2094 8.55251 10.2016 8.56364 10.1893C8.57478 10.177 8.58058 10.1612 8.57977 10.1454C8.57896 10.1296 8.5716 10.1151 8.55932 10.105C8.54704 10.095 8.53084 10.0902 8.51428 10.0918L8.32701 10.1095L8.33312 10.2287Z" fill="#009B3A"/>
<path d="M8.67044 10.4603C8.66707 10.3946 8.65964 10.25 8.55561 10.2599L8.42383 10.2723C8.57641 10.2579 8.58384 10.4024 8.58721 10.4681" fill="#009B3A"/>
<path fill-rule="evenodd" clip-rule="evenodd" d="M8.86964 10.4578L9.0941 10.4539C9.1209 10.4534 9.14734 10.4477 9.17192 10.437C9.19649 10.4263 9.21873 10.4109 9.23734 10.3916C9.25596 10.3723 9.2706 10.3496 9.28042 10.3246C9.29024 10.2997 9.29506 10.2731 9.29459 10.2463L9.2934 10.1783C9.29294 10.1515 9.2872 10.125 9.27651 10.1004C9.26582 10.0759 9.2504 10.0536 9.23112 10.035C9.21184 10.0164 9.18908 10.0018 9.16415 9.99194C9.13921 9.98212 9.11258 9.9773 9.08579 9.97777L8.86133 9.98169L8.86964 10.4578ZM8.95652 10.3678L9.08575 10.3656C9.12003 10.365 9.15266 10.3508 9.17648 10.3261C9.20029 10.3015 9.21333 10.2684 9.21273 10.2341L9.21202 10.1933C9.21142 10.159 9.19723 10.1264 9.17257 10.1026C9.14791 10.0788 9.1148 10.0657 9.08053 10.0663L8.9513 10.0686L8.95652 10.3678Z" fill="#009B3A"/>
<path d="M9.47459 10.4519L9.90291 10.4668L9.906 10.3784L9.55926 10.3663L9.56354 10.244L9.83548 10.2534L9.83833 10.1719L9.56639 10.1624L9.56971 10.0672L9.89605 10.0786L9.89913 9.9902L9.49121 9.97595L9.47459 10.4519Z" fill="#009B3A"/>
<path d="M10.0786 10.4777L10.1599 10.4848L10.1884 10.1595L10.2548 10.4931L10.3294 10.4996L10.4527 10.1826L10.4242 10.5079L10.5056 10.515L10.5471 10.0406L10.4285 10.0303L10.3051 10.3473L10.2387 10.0137L10.1201 10.0033L10.0786 10.4777Z" fill="#009B3A"/>
<path d="M11.0651 10.5889L11.4171 10.6494L11.4309 10.5689L11.1594 10.5223L11.1778 10.415L11.3991 10.453L11.4129 10.3726L11.1917 10.3345L11.2043 10.2608L11.4675 10.306L11.4813 10.2255L11.1377 10.1665L11.0651 10.5889Z" fill="#009B3A"/>
<path fill-rule="evenodd" clip-rule="evenodd" d="M11.9696 10.7665L12.0553 10.7886L12.0995 10.6174L12.284 10.665C12.3224 10.675 12.3632 10.6693 12.3974 10.6491C12.4316 10.629 12.4564 10.5961 12.4663 10.5576C12.4763 10.5192 12.4705 10.4784 12.4504 10.4442C12.4302 10.41 12.3973 10.3852 12.3589 10.3753L12.0955 10.3071L11.9696 10.7665ZM12.1217 10.5317L12.2995 10.5777C12.3152 10.5818 12.3319 10.5794 12.3459 10.5712C12.3599 10.563 12.3701 10.5495 12.3741 10.5338C12.3782 10.5181 12.3758 10.5014 12.3676 10.4874C12.3594 10.4734 12.3459 10.4632 12.3302 10.4592L12.1523 10.4132L12.1217 10.5317Z" fill="#009B3A"/>
<path fill-rule="evenodd" clip-rule="evenodd" d="M12.5532 10.892L12.6436 10.9249L12.6858 10.7674L12.8806 10.8382C12.9211 10.8529 12.9638 10.853 12.9992 10.8384C13.0346 10.8239 13.0598 10.7958 13.0693 10.7605C13.0788 10.7252 13.0718 10.6854 13.0498 10.65C13.0278 10.6146 12.9927 10.5865 12.9521 10.5717L12.6739 10.4707L12.5532 10.892ZM12.707 10.6887L12.8947 10.7569C12.9113 10.7629 12.9288 10.763 12.9433 10.757C12.9578 10.7511 12.9681 10.7396 12.972 10.7251C12.9759 10.7107 12.973 10.6944 12.964 10.68C12.955 10.6655 12.9406 10.6539 12.924 10.6479L12.7363 10.5797L12.707 10.6887Z" fill="#009B3A"/>
<path d="M12.9534 11.044C12.9695 10.984 13.005 10.852 12.9015 10.8144L12.7705 10.7668C12.9222 10.8219 12.8867 10.954 12.8706 11.014" fill="#009B3A"/>
<path fill-rule="evenodd" clip-rule="evenodd" d="M13.3298 11.1837C13.3831 11.2036 13.4429 11.1992 13.4962 11.1714C13.5495 11.1437 13.5918 11.0949 13.614 11.0357C13.6361 10.9766 13.6361 10.9119 13.6141 10.856C13.5921 10.8001 13.5499 10.7575 13.4966 10.7376C13.4434 10.7177 13.3835 10.7221 13.3303 10.7499C13.277 10.7777 13.2346 10.8265 13.2125 10.8856C13.1904 10.9448 13.1903 11.0094 13.2123 11.0653C13.2343 11.1212 13.2766 11.1638 13.3298 11.1837M13.3608 11.1008C13.3921 11.1125 13.4276 11.109 13.4595 11.091C13.4915 11.0729 13.5172 11.0419 13.5311 11.0047C13.545 10.9676 13.5459 10.9273 13.5337 10.8927C13.5214 10.8581 13.4969 10.8322 13.4656 10.8205C13.4344 10.8088 13.3989 10.8123 13.3669 10.8304C13.335 10.8484 13.3093 10.8794 13.2954 10.9166C13.2814 10.9538 13.2805 10.9941 13.2928 11.0286C13.3051 11.0632 13.3296 11.0892 13.3608 11.1008" fill="#009B3A"/>
<mask id="mask1_2777_386061" style="mask-type:luminance" maskUnits="userSpaceOnUse" x="13" y="10" width="2" height="2">
<path d="M13.6938 11.2845L13.8438 10.8878L14.2767 11.0987L14.1267 11.4954L13.6938 11.2845ZM14.0109 11.1236L13.9852 11.1916L14.2017 11.2971L14.2274 11.2291L14.0109 11.1236Z" fill="white"/>
</mask>
<g mask="url(#mask1_2777_386061)">
<path fill-rule="evenodd" clip-rule="evenodd" d="M13.9092 11.3912C13.9664 11.4189 14.0292 11.4244 14.0839 11.4066C14.1385 11.3887 14.1805 11.349 14.2007 11.2961C14.2208 11.2432 14.2175 11.1815 14.1913 11.1245C14.1651 11.0675 14.1183 11.02 14.0612 10.9923C14.004 10.9646 13.9412 10.9591 13.8866 10.9769C13.8319 10.9948 13.7899 11.0345 13.7697 11.0874C13.7496 11.1403 13.753 11.202 13.7791 11.259C13.8053 11.316 13.8521 11.3635 13.9092 11.3912M13.9375 11.3171C13.971 11.3334 14.0082 11.3357 14.0409 11.3237C14.0736 11.3117 14.0991 11.2863 14.1118 11.253C14.1244 11.2198 14.1232 11.1814 14.1085 11.1464C14.0937 11.1114 14.0665 11.0826 14.033 11.0664C13.9994 11.0501 13.9622 11.0477 13.9295 11.0598C13.8968 11.0718 13.8713 11.0972 13.8587 11.1305C13.846 11.1637 13.8472 11.2021 13.862 11.2371C13.8767 11.2721 13.9039 11.3009 13.9375 11.3171" fill="#009B3A"/>
</g>
<path d="M14.1814 11.2847L14.0107 11.2053L13.9889 11.2602L14.1596 11.3396L14.1814 11.2847Z" fill="#009B3A"/>
<path d="M14.1814 11.2831L14.1094 11.25L14.024 11.4623L14.096 11.4955L14.1814 11.2831Z" fill="#009B3A"/>
<path fill-rule="evenodd" clip-rule="evenodd" d="M14.2471 11.5426L14.3323 11.5877L14.4004 11.4396L14.5838 11.5367C14.622 11.557 14.6647 11.5632 14.7025 11.554C14.7403 11.5448 14.7702 11.521 14.7855 11.4878C14.8008 11.4545 14.8003 11.4146 14.7841 11.3768C14.7679 11.339 14.7373 11.3063 14.6991 11.2861L14.4372 11.1473L14.2471 11.5426ZM14.4345 11.3655L14.6113 11.4592C14.6269 11.4675 14.6444 11.47 14.6599 11.4663C14.6754 11.4625 14.6876 11.4528 14.6938 11.4392C14.7001 11.4256 14.6999 11.4092 14.6932 11.3938C14.6866 11.3783 14.6741 11.365 14.6585 11.3567L14.4817 11.263L14.4345 11.3655Z" fill="#009B3A"/>
<path d="M14.623 11.7507C14.649 11.6941 14.7062 11.5697 14.6088 11.5181L14.4854 11.4526C14.6283 11.5284 14.571 11.6528 14.545 11.7093" fill="#009B3A"/>
<path d="M14.786 11.8439L15.159 12.0549L15.2026 11.978L14.9006 11.8071L14.9609 11.7006L15.1977 11.8346L15.2379 11.7635L15.0011 11.6295L15.048 11.5466L15.3322 11.7074L15.3758 11.6304L15.0205 11.4294L14.786 11.8439Z" fill="#009B3A"/>
<path d="M15.4803 12.077C15.4547 12.1172 15.4807 12.1619 15.538 12.1985C15.5954 12.235 15.6345 12.2337 15.651 12.2079C15.7031 12.1262 15.402 12.0069 15.4948 11.8644C15.5748 11.742 15.7117 11.8373 15.7633 11.8702C15.815 11.9031 15.8979 11.9881 15.8334 12.0862L15.7459 12.0305C15.7733 11.9874 15.7432 11.9461 15.6973 11.9168C15.6529 11.8885 15.6167 11.8756 15.5902 11.9172C15.5458 11.9837 15.841 12.1092 15.7505 12.2512C15.6838 12.3559 15.5677 12.3102 15.4903 12.2608C15.4243 12.2188 15.3257 12.1197 15.39 12.0195L15.4803 12.077Z" fill="#009B3A"/>
<path d="M15.9913 12.4149C15.9637 12.4537 15.9872 12.4997 16.0426 12.5392C16.098 12.5787 16.1371 12.5794 16.1549 12.5546C16.2112 12.4756 15.9167 12.3408 16.0169 12.2033C16.1032 12.0852 16.2349 12.1876 16.2848 12.2231C16.3346 12.2587 16.413 12.348 16.3435 12.4425L16.259 12.3823C16.2886 12.3408 16.2607 12.2979 16.2164 12.2663C16.1735 12.2357 16.1381 12.2208 16.1095 12.261C16.0617 12.3251 16.3498 12.4659 16.252 12.6029C16.1799 12.704 16.0664 12.6523 15.9916 12.599C15.928 12.5535 15.8347 12.4494 15.9041 12.3527L15.9913 12.4149Z" fill="#009B3A"/>
<path fill-rule="evenodd" clip-rule="evenodd" d="M16.4738 12.9627C16.5183 12.9981 16.5766 13.0124 16.6358 13.0025C16.695 12.9926 16.7504 12.9592 16.7897 12.9098C16.829 12.8604 16.8491 12.7989 16.8454 12.739C16.8418 12.679 16.8147 12.6254 16.7702 12.5901C16.7258 12.5547 16.6675 12.5404 16.6082 12.5503C16.549 12.5602 16.4936 12.5936 16.4543 12.643C16.415 12.6924 16.395 12.7539 16.3986 12.8138C16.4023 12.8738 16.4293 12.9274 16.4738 12.9627M16.5289 12.8935C16.555 12.9143 16.5898 12.9219 16.6258 12.9146C16.6617 12.9073 16.6958 12.8858 16.7205 12.8547C16.7452 12.8237 16.7585 12.7856 16.7575 12.749C16.7565 12.7123 16.7413 12.6801 16.7152 12.6593C16.6891 12.6385 16.6542 12.6309 16.6183 12.6382C16.5823 12.6455 16.5482 12.667 16.5235 12.6981C16.4988 12.7291 16.4855 12.7672 16.4865 12.8038C16.4875 12.8405 16.5027 12.8728 16.5289 12.8935" fill="#009B3A"/>
<path d="M8.06152 10.8877L7.9953 11.0915L8.09721 11.1246" fill="white"/>
<path d="M8.06152 10.8877L8.12774 11.0915L8.02584 11.1246" fill="white"/>
<path d="M8.26562 11.0356L8.05903 11.0526L8.05134 11.1428" fill="white"/>
<path d="M8.26562 11.0264L8.08516 11.1616L8.02992 11.0849" fill="white"/>
<path d="M7.85742 11.0265L8.03789 11.1617L8.09312 11.0851" fill="white"/>
<path d="M7.85742 11.0358L8.06402 11.0527L8.07171 11.1429" fill="white"/>
<path d="M8.18652 11.2709L8.12791 11.0717L8.0184 11.1095" fill="white"/>
<path d="M8.18164 11.2755L8.01338 11.155L8.08145 11.0629" fill="white"/>
<path d="M7.93945 11.2753L8.10772 11.1547L8.03964 11.0626" fill="white"/>
<path d="M7.93457 11.2706L7.99319 11.0715L8.10269 11.1092" fill="white"/>
<path d="M8.50391 12.9897L8.43769 13.1935L8.53959 13.2267" fill="white"/>
<path d="M8.50391 12.9897L8.57013 13.1935L8.46822 13.2267" fill="white"/>
<path d="M8.70801 13.1377L8.50141 13.1546L8.49372 13.2448" fill="white"/>
<path d="M8.70801 13.1284L8.52754 13.2636L8.47231 13.187" fill="white"/>
<path d="M8.2998 13.1284L8.48027 13.2636L8.53551 13.187" fill="white"/>
<path d="M8.2998 13.1378L8.5064 13.1547L8.51409 13.245" fill="white"/>
<path d="M8.62988 13.3727L8.57127 13.1735L8.46176 13.2113" fill="white"/>
<path d="M8.625 13.3773L8.45674 13.2568L8.52481 13.1647" fill="white"/>
<path d="M8.38379 13.3773L8.55205 13.2568L8.48398 13.1647" fill="white"/>
<path d="M8.37793 13.3728L8.43655 13.1736L8.54605 13.2114" fill="white"/>
<path d="M7.89062 13.4745L7.83544 13.6443L7.92036 13.6719" fill="white"/>
<path d="M7.89062 13.4745L7.94581 13.6443L7.86089 13.6719" fill="white"/>
<path d="M8.06055 13.5979L7.88839 13.612L7.88197 13.6872" fill="white"/>
<path d="M8.06055 13.5901L7.91016 13.7028L7.86413 13.6389" fill="white"/>
<path d="M7.7207 13.5901L7.87109 13.7028L7.91712 13.6389" fill="white"/>
<path d="M7.7207 13.5979L7.89286 13.612L7.89928 13.6872" fill="white"/>
<path d="M7.99512 13.7939L7.94627 13.628L7.85502 13.6594" fill="white"/>
<path d="M7.99121 13.7979L7.85099 13.6974L7.90772 13.6207" fill="white"/>
<path d="M7.79004 13.7976L7.93026 13.6972L7.87353 13.6204" fill="white"/>
<path d="M7.78516 13.7937L7.834 13.6277L7.92526 13.6592" fill="white"/>
<path d="M8.99316 12.7959L8.96163 12.8929L9.01016 12.9087" fill="white"/>
<path d="M8.99316 12.7959L9.0247 12.8929L8.97617 12.9087" fill="white"/>
<path d="M9.09082 12.8663L8.99244 12.8744L8.98878 12.9174" fill="white"/>
<path d="M9.09082 12.8619L9.00488 12.9263L8.97858 12.8898" fill="white"/>
<path d="M8.89648 12.8619L8.98242 12.9263L9.00872 12.8898" fill="white"/>
<path d="M8.89648 12.8665L8.99486 12.8745L8.99853 12.9175" fill="white"/>
<path d="M9.05371 12.9784L9.0258 12.8836L8.97365 12.9015" fill="white"/>
<path d="M9.05078 12.9806L8.96999 12.9227L9.00226 12.8791" fill="white"/>
<path d="M8.93555 12.9805L9.01634 12.9226L8.98407 12.8789" fill="white"/>
<path d="M8.93359 12.9783L8.96151 12.8834L9.01365 12.9014" fill="white"/>
<path d="M9.54395 13.5221L9.48876 13.6919L9.57368 13.7195" fill="white"/>
<path d="M9.54395 13.5221L9.59913 13.6919L9.51421 13.7195" fill="white"/>
<path d="M9.71387 13.6455L9.54171 13.6596L9.53529 13.7348" fill="white"/>
<path d="M9.71387 13.6377L9.56348 13.7504L9.51745 13.6865" fill="white"/>
<path d="M9.37402 13.6377L9.52441 13.7504L9.57044 13.6865" fill="white"/>
<path d="M9.37402 13.6455L9.54618 13.6596L9.5526 13.7348" fill="white"/>
<path d="M9.64941 13.8414L9.60057 13.6755L9.50931 13.7069" fill="white"/>
<path d="M9.64551 13.8453L9.50529 13.7449L9.56202 13.6681" fill="white"/>
<path d="M9.44336 13.8452L9.58358 13.7448L9.52685 13.668" fill="white"/>
<path d="M9.43848 13.8413L9.48732 13.6753L9.57858 13.7068" fill="white"/>
<path d="M9.39453 14.0544L9.35039 14.1903L9.41832 14.2124" fill="white"/>
<path d="M9.39453 14.0544L9.43868 14.1903L9.37074 14.2124" fill="white"/>
<path d="M9.53027 14.1532L9.39254 14.1645L9.38741 14.2246" fill="white"/>
<path d="M9.53027 14.147L9.40996 14.2371L9.37314 14.186" fill="white"/>
<path d="M9.25781 14.1469L9.37812 14.237L9.41495 14.1859" fill="white"/>
<path d="M9.25781 14.1531L9.39554 14.1643L9.40067 14.2245" fill="white"/>
<path d="M9.47852 14.3098L9.43944 14.177L9.36644 14.2022" fill="white"/>
<path d="M9.47461 14.3129L9.36243 14.2325L9.40782 14.1711" fill="white"/>
<path d="M9.31445 14.3129L9.42663 14.2325L9.38124 14.1711" fill="white"/>
<path d="M9.31055 14.3098L9.34962 14.177L9.42263 14.2022" fill="white"/>
<path d="M13.6943 10.2346L13.6281 10.4384L13.73 10.4715" fill="white"/>
<path d="M13.6943 10.2346L13.7606 10.4384L13.6587 10.4715" fill="white"/>
<path d="M13.8984 10.3826L13.6918 10.3995L13.6841 10.4897" fill="white"/>
<path d="M13.8984 10.3733L13.718 10.5085L13.6627 10.4319" fill="white"/>
<path d="M13.4902 10.3734L13.6707 10.5086L13.7259 10.432" fill="white"/>
<path d="M13.4902 10.3827L13.6968 10.3996L13.7045 10.4898" fill="white"/>
<path d="M13.8193 10.6178L13.7607 10.4186L13.6512 10.4564" fill="white"/>
<path d="M13.8145 10.6224L13.6462 10.5019L13.7143 10.4098" fill="white"/>
<path d="M13.5732 10.6222L13.7415 10.5017L13.6734 10.4096" fill="white"/>
<path d="M13.5674 10.6176L13.626 10.4184L13.7355 10.4562" fill="white"/>
<path d="M15.6465 13.5409L15.5803 13.7447L15.6822 13.7778" fill="white"/>
<path d="M15.6465 13.5409L15.7127 13.7447L15.6108 13.7778" fill="white"/>
<path d="M15.8506 13.689L15.644 13.7059L15.6363 13.7961" fill="white"/>
<path d="M15.8506 13.6796L15.6701 13.8148L15.6149 13.7381" fill="white"/>
<path d="M15.4424 13.6796L15.6229 13.8148L15.6781 13.7381" fill="white"/>
<path d="M15.4424 13.689L15.649 13.7059L15.6567 13.7961" fill="white"/>
<path d="M15.7725 13.9238L15.7138 13.7247L15.6043 13.7624" fill="white"/>
<path d="M15.7676 13.9285L15.5993 13.8079L15.6674 13.7158" fill="white"/>
<path d="M15.5264 13.9285L15.6946 13.8079L15.6266 13.7158" fill="white"/>
<path d="M15.5205 13.9238L15.5791 13.7247L15.6886 13.7624" fill="white"/>
<path d="M16.3408 13.6599L16.2967 13.7958L16.3646 13.8179" fill="white"/>
<path d="M16.3408 13.6599L16.385 13.7958L16.317 13.8179" fill="white"/>
<path d="M16.4766 13.7585L16.3388 13.7698L16.3337 13.83" fill="white"/>
<path d="M16.4766 13.7523L16.3563 13.8425L16.3194 13.7914" fill="white"/>
<path d="M16.2041 13.7523L16.3244 13.8425L16.3612 13.7914" fill="white"/>
<path d="M16.2041 13.7585L16.3418 13.7698L16.347 13.83" fill="white"/>
<path d="M16.4248 13.9153L16.3857 13.7825L16.3127 13.8077" fill="white"/>
<path d="M16.4209 13.9183L16.3087 13.838L16.3541 13.7766" fill="white"/>
<path d="M16.2598 13.9183L16.3719 13.838L16.3266 13.7766" fill="white"/>
<path d="M16.2568 13.9152L16.2959 13.7824L16.3689 13.8076" fill="white"/>
<path d="M15.8506 14.0187L15.7954 14.1885L15.8803 14.2161" fill="white"/>
<path d="M15.8506 14.0187L15.9058 14.1885L15.8209 14.2161" fill="white"/>
<path d="M16.0205 14.1421L15.8483 14.1562L15.8419 14.2314" fill="white"/>
<path d="M16.0205 14.1343L15.8701 14.247L15.8241 14.1831" fill="white"/>
<path d="M15.6807 14.1343L15.8311 14.247L15.8771 14.1831" fill="white"/>
<path d="M15.6807 14.1421L15.8528 14.1562L15.8592 14.2314" fill="white"/>
<path d="M15.9551 14.3379L15.9062 14.1719L15.815 14.2034" fill="white"/>
<path d="M15.9512 14.3418L15.811 14.2413L15.8677 14.1646" fill="white"/>
<path d="M15.75 14.3418L15.8902 14.2413L15.8335 14.1646" fill="white"/>
<path d="M15.7451 14.3379L15.794 14.1719L15.8852 14.2034" fill="white"/>
<path d="M14.6465 15.0664L14.5913 15.2362L14.6762 15.2638" fill="white"/>
<path d="M14.6465 15.0664L14.7017 15.2362L14.6167 15.2638" fill="white"/>
<path d="M14.8164 15.1898L14.6442 15.2039L14.6378 15.2791" fill="white"/>
<path d="M14.8164 15.182L14.666 15.2947L14.62 15.2308" fill="white"/>
<path d="M14.4756 15.182L14.626 15.2947L14.672 15.2308" fill="white"/>
<path d="M14.4756 15.1898L14.6477 15.2039L14.6542 15.2791" fill="white"/>
<path d="M14.751 15.3855L14.7021 15.2195L14.6109 15.251" fill="white"/>
<path d="M14.7471 15.3894L14.6069 15.289L14.6636 15.2122" fill="white"/>
<path d="M14.5449 15.3895L14.6851 15.2891L14.6284 15.2123" fill="white"/>
<path d="M14.541 15.3856L14.5899 15.2197L14.6811 15.2511" fill="white"/>
<path d="M14.6396 15.6055L14.5955 15.7413L14.6634 15.7634" fill="white"/>
<path d="M14.6396 15.6055L14.6838 15.7413L14.6159 15.7634" fill="white"/>
<path d="M14.7754 15.7042L14.6377 15.7155L14.6325 15.7757" fill="white"/>
<path d="M14.7754 15.698L14.6551 15.7881L14.6183 15.737" fill="white"/>
<path d="M14.5039 15.6979L14.6242 15.788L14.661 15.7369" fill="white"/>
<path d="M14.5039 15.7041L14.6416 15.7154L14.6468 15.7755" fill="white"/>
<path d="M14.7236 15.8606L14.6846 15.7278L14.6116 15.753" fill="white"/>
<path d="M14.7197 15.8638L14.6076 15.7834L14.6529 15.722" fill="white"/>
<path d="M14.5586 15.8639L14.6708 15.7835L14.6254 15.7221" fill="white"/>
<path d="M14.5547 15.8608L14.5938 15.7281L14.6668 15.7532" fill="white"/>
<path d="M15.1436 14.7075L15.0994 14.8434L15.1673 14.8655" fill="white"/>
<path d="M15.1436 14.7075L15.1877 14.8434L15.1198 14.8655" fill="white"/>
<path d="M15.2793 14.8063L15.1416 14.8175L15.1364 14.8777" fill="white"/>
<path d="M15.2793 14.8L15.159 14.8902L15.1222 14.8391" fill="white"/>
<path d="M15.0068 14.7999L15.1271 14.8901L15.164 14.839" fill="white"/>
<path d="M15.0068 14.8062L15.1446 14.8174L15.1497 14.8776" fill="white"/>
<path d="M15.2275 14.9629L15.1885 14.8301L15.1155 14.8553" fill="white"/>
<path d="M15.2236 14.9661L15.1115 14.8857L15.1568 14.8243" fill="white"/>
<path d="M15.0625 14.9659L15.1747 14.8856L15.1293 14.8242" fill="white"/>
<path d="M15.0586 14.9629L15.0977 14.8301L15.1707 14.8553" fill="white"/>
<path d="M15.5449 14.42L15.4897 14.5899L15.5747 14.6175" fill="white"/>
<path d="M15.5449 14.42L15.6001 14.5899L15.5152 14.6175" fill="white"/>
<path d="M15.7148 14.5435L15.5427 14.5575L15.5363 14.6327" fill="white"/>
<path d="M15.7148 14.5356L15.5645 14.6483L15.5184 14.5844" fill="white"/>
<path d="M15.374 14.5356L15.5244 14.6483L15.5704 14.5844" fill="white"/>
<path d="M15.374 14.5435L15.5462 14.5575L15.5526 14.6327" fill="white"/>
<path d="M15.6504 14.7393L15.6015 14.5733L15.5103 14.6048" fill="white"/>
<path d="M15.6465 14.743L15.5063 14.6426L15.563 14.5658" fill="white"/>
<path d="M15.4443 14.7432L15.5846 14.6427L15.5278 14.566" fill="white"/>
<path d="M15.4395 14.7393L15.4883 14.5733L15.5796 14.6048" fill="white"/>
<path d="M14.626 14.6123L14.5818 14.7482L14.6498 14.7702" fill="white"/>
<path d="M14.626 14.6123L14.6701 14.7482L14.6022 14.7702" fill="white"/>
<path d="M14.7617 14.7111L14.624 14.7223L14.6189 14.7825" fill="white"/>
<path d="M14.7617 14.7048L14.6414 14.795L14.6046 14.7439" fill="white"/>
<path d="M14.4893 14.7047L14.6096 14.7949L14.6464 14.7438" fill="white"/>
<path d="M14.4893 14.7109L14.627 14.7222L14.6321 14.7824" fill="white"/>
<path d="M14.71 14.8677L14.6709 14.7349L14.5979 14.7601" fill="white"/>
<path d="M14.7061 14.8707L14.5939 14.7904L14.6393 14.729" fill="white"/>
<path d="M14.5449 14.8707L14.6571 14.7904L14.6117 14.729" fill="white"/>
<path d="M14.542 14.8677L14.5811 14.7349L14.6541 14.7601" fill="white"/>
<path d="M10.2383 12.0255L10.1831 12.1953L10.268 12.2229" fill="white"/>
<path d="M10.2383 12.0255L10.2935 12.1953L10.2085 12.2229" fill="white"/>
<path d="M10.4082 12.1489L10.236 12.163L10.2296 12.2382" fill="white"/>
<path d="M10.4082 12.1411L10.2578 12.2538L10.2118 12.1899" fill="white"/>
<path d="M10.0684 12.1411L10.2187 12.2538L10.2648 12.1899" fill="white"/>
<path d="M10.0684 12.1489L10.2405 12.163L10.2469 12.2382" fill="white"/>
<path d="M10.3438 12.3446L10.2949 12.1786L10.2037 12.2101" fill="white"/>
<path d="M10.3398 12.3485L10.1996 12.2481L10.2564 12.1713" fill="white"/>
<path d="M10.1377 12.3486L10.2779 12.2482L10.2212 12.1714" fill="white"/>
<path d="M10.1328 12.3447L10.1817 12.1788L10.2729 12.2102" fill="white"/>
<path d="M13.5029 11.6055L13.4588 11.7413L13.5267 11.7634" fill="white"/>
<path d="M13.5029 11.6055L13.5471 11.7413L13.4791 11.7634" fill="white"/>
<path d="M13.6396 11.7042L13.5019 11.7155L13.4968 11.7757" fill="white"/>
<path d="M13.6396 11.698L13.5193 11.7881L13.4825 11.737" fill="white"/>
<path d="M13.3672 11.6979L13.4875 11.788L13.5243 11.7369" fill="white"/>
<path d="M13.3672 11.7041L13.5049 11.7154L13.51 11.7755" fill="white"/>
<path d="M13.5879 11.8607L13.5488 11.7279L13.4758 11.7531" fill="white"/>
<path d="M13.584 11.8639L13.4718 11.7835L13.5172 11.7221" fill="white"/>
<path d="M13.4229 11.8639L13.535 11.7835L13.4896 11.7221" fill="white"/>
<path d="M13.4199 11.8608L13.459 11.7281L13.532 11.7532" fill="white"/>
<path d="M12.1426 14.0306L12.0764 14.2344L12.1783 14.2676" fill="white"/>
<path d="M12.1426 14.0306L12.2088 14.2344L12.1069 14.2676" fill="white"/>
<path d="M12.3467 14.1788L12.1401 14.1957L12.1324 14.286" fill="white"/>
<path d="M12.3467 14.1694L12.1662 14.3047L12.111 14.228" fill="white"/>
<path d="M11.9385 14.1693L12.1189 14.3045L12.1742 14.2279" fill="white"/>
<path d="M11.9385 14.1787L12.1451 14.1956L12.1528 14.2859" fill="white"/>
<path d="M12.2686 14.4136L12.2099 14.2144L12.1004 14.2522" fill="white"/>
<path d="M12.2637 14.4182L12.0954 14.2977L12.1635 14.2056" fill="white"/>
<path d="M12.0225 14.4182L12.1907 14.2977L12.1226 14.2056" fill="white"/>
<path d="M12.0166 14.4136L12.0752 14.2144L12.1847 14.2522" fill="white"/>
<path d="M12.7217 13.0731L12.6665 13.243L12.7514 13.2705" fill="white"/>
<path d="M12.7217 13.0731L12.7769 13.243L12.6919 13.2705" fill="white"/>
<path d="M12.8916 13.1965L12.7194 13.2106L12.713 13.2858" fill="white"/>
<path d="M12.8916 13.1887L12.7412 13.3014L12.6952 13.2375" fill="white"/>
<path d="M12.5518 13.1887L12.7021 13.3014L12.7482 13.2375" fill="white"/>
<path d="M12.5518 13.1965L12.7239 13.2106L12.7303 13.2858" fill="white"/>
<path d="M12.8271 13.3923L12.7783 13.2264L12.687 13.2578" fill="white"/>
<path d="M12.8232 13.3962L12.683 13.2958L12.7398 13.219" fill="white"/>
<path d="M12.6211 13.3962L12.7613 13.2958L12.7046 13.219" fill="white"/>
<path d="M12.6162 13.3923L12.6651 13.2264L12.7563 13.2578" fill="white"/>
<path d="M12.1436 12.6241L12.0884 12.794L12.1733 12.8216" fill="white"/>
<path d="M12.1436 12.6241L12.1987 12.794L12.1138 12.8216" fill="white"/>
<path d="M12.3125 12.7476L12.1403 12.7616L12.1339 12.8368" fill="white"/>
<path d="M12.3125 12.7397L12.1621 12.8524L12.1161 12.7886" fill="white"/>
<path d="M11.9727 12.7397L12.123 12.8524L12.1691 12.7886" fill="white"/>
<path d="M11.9727 12.7476L12.1448 12.7616L12.1512 12.8368" fill="white"/>
<path d="M12.249 12.9432L12.2002 12.7773L12.1089 12.8087" fill="white"/>
<path d="M12.2451 12.9471L12.1049 12.8467L12.1616 12.7699" fill="white"/>
<path d="M12.043 12.9473L12.1832 12.8468L12.1265 12.7701" fill="white"/>
<path d="M12.0381 12.9435L12.0869 12.7775L12.1782 12.809" fill="white"/>
<path d="M11.6396 13.1089L11.5955 13.2448L11.6634 13.2668" fill="white"/>
<path d="M11.6396 13.1089L11.6838 13.2448L11.6159 13.2668" fill="white"/>
<path d="M11.7754 13.2076L11.6377 13.2189L11.6325 13.2791" fill="white"/>
<path d="M11.7754 13.2014L11.6551 13.2916L11.6183 13.2405" fill="white"/>
<path d="M11.5029 13.2013L11.6232 13.2914L11.6601 13.2403" fill="white"/>
<path d="M11.5029 13.2075L11.6407 13.2188L11.6458 13.2789" fill="white"/>
<path d="M11.7236 13.3641L11.6846 13.2314L11.6116 13.2565" fill="white"/>
<path d="M11.7197 13.3673L11.6076 13.287L11.6529 13.2256" fill="white"/>
<path d="M11.5596 13.3674L11.6717 13.2871L11.6264 13.2257" fill="white"/>
<path d="M11.5566 13.3644L11.5957 13.2316L11.6687 13.2568" fill="white"/>
<path d="M11.8906 13.4966L11.8591 13.5936L11.9076 13.6094" fill="white"/>
<path d="M11.8906 13.4966L11.9222 13.5936L11.8736 13.6094" fill="white"/>
<path d="M11.9883 13.567L11.8899 13.5751L11.8862 13.618" fill="white"/>
<path d="M11.9883 13.5626L11.9023 13.627L11.876 13.5905" fill="white"/>
<path d="M11.7939 13.5627L11.8799 13.6271L11.9062 13.5906" fill="white"/>
<path d="M11.7939 13.5673L11.8923 13.5753L11.896 13.6183" fill="white"/>
<path d="M11.9512 13.6791L11.9233 13.5842L11.8711 13.6022" fill="white"/>
<path d="M11.9482 13.6813L11.8675 13.6234L11.8997 13.5797" fill="white"/>
<path d="M11.833 13.6812L11.9138 13.6233L11.8815 13.5796" fill="white"/>
<path d="M11.8311 13.679L11.859 13.5841L11.9111 13.6021" fill="white"/>
<path d="M13.6396 15.1888L13.5845 15.3587L13.6694 15.3863" fill="white"/>
<path d="M13.6396 15.1888L13.6948 15.3587L13.6099 15.3863" fill="white"/>
<path d="M13.8096 15.3123L13.6374 15.3263L13.631 15.4015" fill="white"/>
<path d="M13.8096 15.3044L13.6592 15.4171L13.6132 15.3532" fill="white"/>
<path d="M13.4697 15.3044L13.6201 15.4171L13.6661 15.3532" fill="white"/>
<path d="M13.4697 15.3123L13.6419 15.3263L13.6483 15.4015" fill="white"/>
<path d="M13.7451 15.5079L13.6963 15.342L13.605 15.3734" fill="white"/>
<path d="M13.7412 15.5118L13.601 15.4114L13.6577 15.3346" fill="white"/>
<path d="M13.5391 15.512L13.6793 15.4115L13.6226 15.3348" fill="white"/>
<path d="M13.5342 15.5082L13.583 15.3422L13.6743 15.3737" fill="white"/>
<path d="M14.0684 14.7823L14.0242 14.9182L14.0921 14.9403" fill="white"/>
<path d="M14.0684 14.7823L14.1125 14.9182L14.0446 14.9403" fill="white"/>
<path d="M14.2041 14.8811L14.0664 14.8924L14.0612 14.9525" fill="white"/>
<path d="M14.2041 14.8749L14.0838 14.965L14.047 14.9139" fill="white"/>
<path d="M13.9326 14.8748L14.0529 14.9649L14.0898 14.9138" fill="white"/>
<path d="M13.9326 14.881L14.0703 14.8923L14.0755 14.9524" fill="white"/>
<path d="M14.1523 15.0375L14.1133 14.9047L14.0403 14.9299" fill="white"/>
<path d="M14.1484 15.0406L14.0363 14.9603L14.0816 14.8989" fill="white"/>
<path d="M13.9873 15.0408L14.0995 14.9604L14.0541 14.899" fill="white"/>
<path d="M13.9834 15.0377L14.0225 14.9049L14.0955 14.9301" fill="white"/>
<path d="M13.2451 14.6599L13.201 14.7958L13.2689 14.8179" fill="white"/>
<path d="M13.2451 14.6599L13.2893 14.7958L13.2213 14.8179" fill="white"/>
<path d="M13.3809 14.7587L13.2431 14.7699L13.238 14.8301" fill="white"/>
<path d="M13.3809 14.7524L13.2605 14.8426L13.2237 14.7915" fill="white"/>
<path d="M13.1084 14.7523L13.2287 14.8425L13.2655 14.7914" fill="white"/>
<path d="M13.1084 14.7585L13.2461 14.7698L13.2513 14.83" fill="white"/>
<path d="M13.3291 14.9152L13.29 14.7824L13.217 14.8076" fill="white"/>
<path d="M13.3252 14.9183L13.213 14.838L13.2584 14.7766" fill="white"/>
<path d="M13.165 14.9183L13.2772 14.838L13.2318 14.7766" fill="white"/>
<path d="M13.1611 14.9153L13.2002 14.7825L13.2732 14.8077" fill="white"/>
<path d="M10.1357 14.4388L10.0695 14.6426L10.1714 14.6758" fill="white"/>
<path d="M10.1357 14.4388L10.202 14.6426L10.1001 14.6758" fill="white"/>
<path d="M10.3408 14.5869L10.1342 14.6038L10.1265 14.6941" fill="white"/>
<path d="M10.3408 14.5775L10.1604 14.7127L10.1051 14.6361" fill="white"/>
<path d="M9.93262 14.5776L10.1131 14.7129L10.1683 14.6362" fill="white"/>
<path d="M9.93262 14.5869L10.1392 14.6038L10.1469 14.6941" fill="white"/>
<path d="M10.2627 14.8218L10.2041 14.6226L10.0946 14.6604" fill="white"/>
<path d="M10.2578 14.8264L10.0895 14.7059L10.1576 14.6138" fill="white"/>
<path d="M10.0156 14.8264L10.1839 14.7059L10.1158 14.6138" fill="white"/>
<path d="M10.0098 14.8218L10.0684 14.6226L10.1779 14.6604" fill="white"/>
<path d="M12.1416 15.8402L12.1195 15.9081L12.1535 15.9192" fill="white"/>
<path d="M12.1416 15.8402L12.1637 15.9081L12.1297 15.9192" fill="white"/>
<path d="M12.21 15.8896L12.1411 15.8953L12.1385 15.9254" fill="white"/>
<path d="M12.21 15.8865L12.1498 15.9315L12.1314 15.906" fill="white"/>
<path d="M12.0742 15.8865L12.1344 15.9315L12.1528 15.906" fill="white"/>
<path d="M12.0742 15.8895L12.1431 15.8952L12.1456 15.9252" fill="white"/>
<path d="M12.1846 15.9679L12.165 15.9015L12.1285 15.9141" fill="white"/>
<path d="M12.1826 15.9695L12.1261 15.929L12.1487 15.8984" fill="white"/>
<path d="M12.1016 15.9695L12.1581 15.929L12.1355 15.8984" fill="white"/>
<path d="M12.0996 15.9679L12.1191 15.9015L12.1556 15.9141" fill="white"/>
</g>
<defs>
<clipPath id="clip0_2777_386061">
<rect width="24" height="24" rx="12" fill="white"/>
</clipPath>
</defs>
</svg>
