<svg width="24" height="24" viewBox="0 0 24 24" fill="none" xmlns="http://www.w3.org/2000/svg">
<path d="M17.0388 11.8569C18.7913 11.0623 19.9357 9.86897 19.9981 8.54514C19.9981 8.54514 19.5354 8.17779 18.0415 7.61128C16.7297 7.1138 15.7289 6.99995 15.7289 6.99995L15.7335 9.9495C15.7335 10.3902 15.5619 10.8401 15.2378 11.2384C14.2462 10.9917 13.1503 10.8532 12.001 10.8528H12.0002C10.85 10.8532 9.75303 10.9921 8.76031 11.2392C8.43621 10.8409 8.26415 10.3906 8.26415 9.9495L8.26839 6.99995C8.26839 6.99995 7.26836 7.1138 5.95578 7.61128C4.46191 8.17779 4 8.54514 4 8.54514C4.06197 9.86937 5.20673 11.0631 6.9612 11.8577C5.20827 12.6523 4.0639 13.8456 4.00193 15.169C4.00193 15.169 4.46421 15.5368 5.95809 16.1029C7.27029 16.6004 8.2707 16.7142 8.2707 16.7142L8.26608 13.7647C8.26608 13.3239 8.43775 12.8737 8.76224 12.4758C9.75379 12.7229 10.8493 12.861 11.9987 12.861C13.1492 12.861 14.247 12.7225 15.2393 12.4746C15.5634 12.8729 15.7351 13.3239 15.7351 13.7647L15.7312 16.7142C15.7312 16.7142 16.7316 16.6004 18.0438 16.1029C19.5377 15.5368 20 15.169 20 15.169C19.9376 13.8448 18.7929 12.6511 17.0388 11.8569ZM11.9994 12.5206H11.9983L11.9655 12.5198C10.9278 12.5198 10.0817 12.258 9.46126 11.8577C10.0817 11.4566 10.9282 11.1944 11.9679 11.1944L11.9998 11.194H12.0013L12.0341 11.1944C13.0722 11.1944 13.9179 11.4562 14.5384 11.8565C13.9179 12.2572 13.0714 12.5198 12.0321 12.5198" fill="black"/>
</svg>
