<svg width="24" height="24" viewBox="0 0 24 24" fill="none" xmlns="http://www.w3.org/2000/svg">
<path d="M5.76492 14.8158C5.28819 14.7965 4.89815 14.6634 4.59317 14.4162C4.53496 14.369 4.39627 14.2274 4.34974 14.1676C4.22607 14.009 4.14198 13.8546 4.0859 13.6832C3.91333 13.1558 4.00215 12.4638 4.33994 11.7042C4.62917 11.054 5.07545 10.409 5.85406 9.51582C5.96876 9.38439 6.31031 9 6.31251 9C6.31333 9 6.29471 9.0329 6.27129 9.07296C6.06884 9.41895 5.89561 9.8265 5.80125 10.1793C5.64965 10.7455 5.66794 11.2313 5.8548 11.608C5.98369 11.8676 6.20467 12.0924 6.45316 12.2166C6.88818 12.4341 7.52508 12.4521 8.30288 12.2693C8.35643 12.2566 11.01 11.5379 14.1997 10.6721C17.3894 9.80618 19.9996 9.09828 20 9.09887C20.0009 9.09962 12.5894 12.3355 8.74198 14.0142C8.13267 14.28 7.96973 14.3471 7.68328 14.4498C6.95104 14.7121 6.29512 14.8373 5.76492 14.8158Z" fill="black"/>
</svg>
