<svg width="24" height="24" viewBox="0 0 24 24" fill="none" xmlns="http://www.w3.org/2000/svg">
<path d="M5.51365 6.10735C5.41085 6.12685 5.30982 6.49033 5.10599 6.69245C4.96243 6.8343 4.77987 6.83429 4.67707 6.99564C4.6363 7.05592 4.6558 7.17295 4.61503 7.27933C4.5335 7.50096 4.24637 7.52223 4.24637 7.74386C4.24637 7.96549 4.49096 8.04705 4.69479 8.2279C4.85785 8.36975 4.87203 8.47081 5.06345 8.53109C5.25487 8.59138 5.47111 8.41053 5.69621 8.47081C5.87345 8.53109 6.06488 8.57187 6.10387 8.7545C6.14286 8.93712 6.10387 9.19953 5.87877 9.15875C5.61882 9.09331 5.35077 9.06584 5.08295 9.07719C4.59376 9.13747 4.04077 9.27931 4 9.82541C4.00549 9.9101 4.02805 9.99281 4.06632 10.0686C4.10459 10.1443 4.15777 10.2115 4.22267 10.2662C4.28757 10.3208 4.36285 10.3618 4.44399 10.3866C4.52512 10.4114 4.61043 10.4195 4.69479 10.4105C4.93939 10.3697 4.81709 10.0665 4.96065 9.92647C5.1379 9.74917 6.14463 10.5524 7.08756 10.5524C7.27064 10.5616 7.45349 10.5301 7.62297 10.4602C7.79245 10.3903 7.94434 10.2837 8.06771 10.1481C8.08898 10.1286 8.12974 10.0665 8.17051 10.0665C8.21635 10.074 8.25893 10.095 8.29281 10.1268C9.04786 10.7332 9.62035 11.9247 12.3694 11.9442C12.818 11.9657 13.2447 12.1446 13.5746 12.4495C13.9008 12.7527 14.0851 13.2172 14.2694 13.6818C14.5548 14.391 15.0457 15.0754 15.8008 15.8236C15.8416 15.8644 16.4548 16.3555 16.5098 16.3697C16.5098 16.3697 16.5718 16.4903 16.5505 16.547C16.5293 17.0115 16.469 18.32 17.4686 18.3856C17.7132 18.4051 17.6459 18.2243 17.6459 18.102C17.6459 17.8803 17.6051 17.6374 17.7274 17.4158C17.8905 17.0931 17.3729 16.9513 17.3729 16.2438C17.3942 15.7119 16.944 15.7988 16.7189 15.4158C16.5966 15.1942 16.4743 15.0523 16.4743 14.7686C16.5151 13.1729 16.1198 12.1233 15.9426 11.8804C15.799 11.6782 15.6572 11.618 15.799 11.5169C16.6356 10.9708 16.8199 10.4655 16.8199 10.4655C17.2684 9.43534 17.6565 8.48677 18.2077 8.08251C18.3852 7.93595 18.577 7.80765 18.7802 7.69954C19.2907 7.45663 19.5565 7.31656 19.6983 7.16763C19.9234 6.946 20.1273 6.45841 19.9022 6.17827C19.6168 5.8148 19.1471 6.09671 18.922 6.23855C17.3906 7.14812 17.1655 8.72081 16.6356 9.63215C16.2067 10.3591 15.5332 10.9052 14.9199 10.9442C14.4203 10.976 13.9209 10.8783 13.4701 10.6605C12.7306 10.3343 12.0484 9.89131 11.4495 9.34846C11.1234 9.10555 8.63134 6.66231 6.58951 6.56125C6.58951 6.56125 6.34491 6.05593 6.28288 6.05593C6.13931 6.03643 5.97625 6.35912 5.87523 6.3999C5.7742 6.44068 5.61468 6.08784 5.51365 6.10735Z" fill="black"/>
</svg>
