<svg width="24" height="24" viewBox="0 0 24 24" fill="none" xmlns="http://www.w3.org/2000/svg">
<path fill-rule="evenodd" clip-rule="evenodd" d="M9.20137 13.0173L8.56136 14.1225L5.0188 13.9233L5.37347 13.3076L9.20137 13.0173ZM11.7623 9.49534L12.0833 10.7152L7.05663 10.3848L7.41108 9.76938L11.7623 9.49534ZM8.42988 8.00017L11.3722 8.00234L11.5943 8.83642L8.07587 8.61562L8.42988 8.00017ZM8.17127 14.8099L7.66035 15.6883L4 15.6923L4.35445 15.077L8.17127 14.8099ZM14.5977 12.44L13.7117 13.9759H14.5555C14.9465 13.9759 15.6471 13.7807 15.8627 13.2239C16.0624 12.7065 15.6954 12.4394 15.4392 12.4394L14.5977 12.44ZM15.4426 10.971L16.1787 10.9664C16.6685 10.9638 17.1795 10.7397 17.3664 10.2851C17.5387 9.86326 17.307 9.50403 17 9.50533L16.288 9.50447L15.4426 10.971ZM12.1109 10.7152L12.8541 9.4258L15.3696 9.26433L15.4574 9.10785L13.1305 8.94508L13.6747 8.00017L17.9899 7.99995C19.3168 7.99995 20.2985 8.47436 19.9168 9.86957C19.8021 10.2923 19.2627 11.3563 17.6808 11.802C18.0166 11.842 18.8528 12.2125 18.7088 13.1731C18.4527 14.8764 16.2474 15.6873 15.0206 15.6877L9.92614 15.6901L9.67513 14.7045L12.3434 14.5163L12.434 14.3603L9.53996 14.184L9.2281 13.0157L13.3461 12.7754L13.4357 12.6206L6.03739 12.1538L6.39184 11.5386L14.3554 11.0216L14.4456 10.8666L12.1109 10.7152Z" fill="black"/>
</svg>
