<svg width="24" height="24" viewBox="0 0 24 24" fill="none" xmlns="http://www.w3.org/2000/svg">
<g clip-path="url(#clip0_2777_386065)">
<path d="M0 0H24V24H0" fill="#B31942"/>
<path d="M0 2.76929H24ZM24 6.46159H0ZM0 10.1539H24ZM24 13.8462H0ZM0 17.5385H24ZM24 21.2308H0Z" fill="black"/>
<path fill-rule="evenodd" clip-rule="evenodd" d="M24 3.69235H0V1.84619H24V3.69235ZM0 5.5385H24V7.38465H0V5.5385ZM24 11.077H0V9.23081H24V11.077ZM0 12.9231H24V14.7693H0V12.9231ZM24 18.4616H0V16.6154H24V18.4616ZM0 20.3077H24V22.1539H0V20.3077Z" fill="white"/>
<path d="M-6 0H12.3371V12.9231H-6" fill="#0A3161"/>
<path d="M0.113283 1.84619L0.54965 3.18208L-0.592773 2.35646H0.81934L-0.323084 3.18208L0.113283 1.84619Z" fill="white"/>
<path d="M0.113283 4.43079L0.54965 5.76668L-0.592773 4.94105H0.81934L-0.323084 5.76668L0.113283 4.43079Z" fill="white"/>
<path d="M0.113283 7.01538L0.54965 8.35127L-0.592773 7.52565H0.81934L-0.323084 8.35127L0.113283 7.01538Z" fill="white"/>
<path d="M0.113283 9.6001L0.54965 10.936L-0.592773 10.1104H0.81934L-0.323084 10.936L0.113283 9.6001Z" fill="white"/>
<path d="M1.64063 0.553833L2.07699 1.88972L0.93457 1.0641H2.34668L1.20426 1.88972L1.64063 0.553833Z" fill="white"/>
<path d="M1.64063 3.13843L2.07699 4.47432L0.93457 3.64869H2.34668L1.20426 4.47432L1.64063 3.13843Z" fill="white"/>
<path d="M1.64063 5.72302L2.07699 7.05891L0.93457 6.23329H2.34668L1.20426 7.05891L1.64063 5.72302Z" fill="white"/>
<path d="M1.64063 8.30774L2.07699 9.64363L0.93457 8.818H2.34668L1.20426 9.64363L1.64063 8.30774Z" fill="white"/>
<path d="M1.64063 10.8923L2.07699 12.2282L0.93457 11.4026H2.34668L1.20426 12.2282L1.64063 10.8923Z" fill="white"/>
<path d="M3.16895 1.84619L3.60531 3.18208L2.46289 2.35646H3.875L2.73258 3.18208L3.16895 1.84619Z" fill="white"/>
<path d="M3.16895 4.43079L3.60531 5.76668L2.46289 4.94105H3.875L2.73258 5.76668L3.16895 4.43079Z" fill="white"/>
<path d="M3.16895 7.01538L3.60531 8.35127L2.46289 7.52565H3.875L2.73258 8.35127L3.16895 7.01538Z" fill="white"/>
<path d="M3.16895 9.6001L3.60531 10.936L2.46289 10.1104H3.875L2.73258 10.936L3.16895 9.6001Z" fill="white"/>
<path d="M4.69727 0.553833L5.13363 1.88972L3.99121 1.0641H5.40332L4.2609 1.88972L4.69727 0.553833Z" fill="white"/>
<path d="M4.69727 3.13843L5.13363 4.47432L3.99121 3.64869H5.40332L4.2609 4.47432L4.69727 3.13843Z" fill="white"/>
<path d="M4.69727 5.72302L5.13363 7.05891L3.99121 6.23329H5.40332L4.2609 7.05891L4.69727 5.72302Z" fill="white"/>
<path d="M4.69727 8.30774L5.13363 9.64363L3.99121 8.818H5.40332L4.2609 9.64363L4.69727 8.30774Z" fill="white"/>
<path d="M4.69727 10.8923L5.13363 12.2282L3.99121 11.4026H5.40332L4.2609 12.2282L4.69727 10.8923Z" fill="white"/>
<path d="M6.22559 1.84619L6.66195 3.18208L5.51953 2.35646H6.93164L5.78922 3.18208L6.22559 1.84619Z" fill="white"/>
<path d="M6.22559 4.43079L6.66195 5.76668L5.51953 4.94105H6.93164L5.78922 5.76668L6.22559 4.43079Z" fill="white"/>
<path d="M6.22559 7.01538L6.66195 8.35127L5.51953 7.52565H6.93164L5.78922 8.35127L6.22559 7.01538Z" fill="white"/>
<path d="M6.22559 9.6001L6.66195 10.936L5.51953 10.1104H6.93164L5.78922 10.936L6.22559 9.6001Z" fill="white"/>
<path d="M7.75293 0.553833L8.1893 1.88972L7.04688 1.0641H8.45899L7.31656 1.88972L7.75293 0.553833Z" fill="white"/>
<path d="M7.75293 3.13843L8.1893 4.47432L7.04688 3.64869H8.45899L7.31656 4.47432L7.75293 3.13843Z" fill="white"/>
<path d="M7.75293 5.72302L8.1893 7.05891L7.04688 6.23329H8.45899L7.31656 7.05891L7.75293 5.72302Z" fill="white"/>
<path d="M7.75293 8.30774L8.1893 9.64363L7.04688 8.818H8.45899L7.31656 9.64363L7.75293 8.30774Z" fill="white"/>
<path d="M7.75293 10.8923L8.1893 12.2282L7.04688 11.4026H8.45899L7.31656 12.2282L7.75293 10.8923Z" fill="white"/>
<path d="M9.28125 1.84619L9.71762 3.18208L8.5752 2.35646H9.98731L8.84488 3.18208L9.28125 1.84619Z" fill="white"/>
<path d="M9.28125 4.43079L9.71762 5.76668L8.5752 4.94105H9.98731L8.84488 5.76668L9.28125 4.43079Z" fill="white"/>
<path d="M9.28125 7.01538L9.71762 8.35127L8.5752 7.52565H9.98731L8.84488 8.35127L9.28125 7.01538Z" fill="white"/>
<path d="M9.28125 9.6001L9.71762 10.936L8.5752 10.1104H9.98731L8.84488 10.936L9.28125 9.6001Z" fill="white"/>
<path d="M10.8096 0.553833L11.2459 1.88972L10.1035 1.0641H11.5156L10.3732 1.88972L10.8096 0.553833Z" fill="white"/>
<path d="M10.8096 3.13843L11.2459 4.47432L10.1035 3.64869H11.5156L10.3732 4.47432L10.8096 3.13843Z" fill="white"/>
<path d="M10.8096 5.72302L11.2459 7.05891L10.1035 6.23329H11.5156L10.3732 7.05891L10.8096 5.72302Z" fill="white"/>
<path d="M10.8096 8.30774L11.2459 9.64363L10.1035 8.818H11.5156L10.3732 9.64363L10.8096 8.30774Z" fill="white"/>
<path d="M10.8096 10.8923L11.2459 12.2282L10.1035 11.4026H11.5156L10.3732 12.2282L10.8096 10.8923Z" fill="white"/>
</g>
<defs>
<clipPath id="clip0_2777_386065">
<rect width="24" height="24" rx="12" fill="white"/>
</clipPath>
</defs>
</svg>
